<?xml version="1.0" encoding="UTF-8"?>
<svg id="Layer_1" xmlns="http://www.w3.org/2000/svg" version="1.1" viewBox="0 0 109 104">
  <!-- Generator: Adobe Illustrator 29.0.1, SVG Export Plug-In . SVG Version: 2.1.0 Build 192)  -->
  <defs>
    <style>
      .st0 {
        fill: #f24c27;
      }
    </style>
  </defs>
  <path class="st0" d="M47.12,63.22c0-.39.32-.71.71-.71h15.65c.39,0,.71.32.71.71v1.42c0,.39-.32.71-.71.71h-15.65c-.39,0-.71-.32-.71-.71v-1.42ZM47.83,66.78h15.65c1.18,0,2.13-.96,2.13-2.13v-1.42c0-1.18-.96-2.13-2.13-2.13h-15.65c-1.18,0-2.13.96-2.13,2.13v1.42c0,1.18.96,2.13,2.13,2.13M64.19,40.46c0,.39-.32.71-.71.71h-15.65c-.39,0-.71-.32-.71-.71v-1.42c0-.39.32-.71.71-.71h15.65c.39,0,.71.32.71.71v1.42ZM63.48,36.91h-15.65c-1.18,0-2.13.96-2.13,2.13v1.42c0,1.18.96,2.13,2.13,2.13h15.65c1.18,0,2.13-.96,2.13-2.13v-1.42c0-1.18-.96-2.13-2.13-2.13M79.84,51.13H30.05v-20.63c0-1.18.96-2.13,2.13-2.13h45.52c1.18,0,2.13.96,2.13,2.13v20.63ZM79.84,73.18c0,1.18-.96,2.13-2.13,2.13h-45.52c-1.18,0-2.13-.96-2.13-2.13v-20.63h49.79v20.63ZM77.7,26.95h-45.52c-1.96,0-3.55,1.59-3.56,3.56v42.68c0,1.96,1.59,3.55,3.56,3.56h45.52c1.96,0,3.55-1.59,3.56-3.56V30.51c0-1.96-1.59-3.55-3.56-3.56M85.53,73.18c0,4.32-3.51,7.82-7.82,7.82h-45.52c-4.32,0-7.82-3.51-7.82-7.82V30.51c0-4.32,3.51-7.82,7.82-7.82h45.52c4.32,0,7.82,3.51,7.82,7.82v42.68ZM76.6,86.4c-.2,1-1.08,1.71-2.09,1.71h-2.45c-1.02,0-1.89-.72-2.09-1.71l-.8-3.97h8.22l-.8,3.97ZM41.35,86.4c-.2,1-1.08,1.71-2.09,1.71h-2.45c-1.02,0-1.89-.72-2.09-1.71l-.79-3.97h8.22l-.79,3.97ZM77.7,21.26h-45.52c-5.1,0-9.24,4.14-9.25,9.25v42.68c0,5.1,4.14,9.24,9.25,9.25h.28l.85,4.25c.33,1.66,1.79,2.86,3.49,2.86h2.45c1.69,0,3.15-1.2,3.49-2.86l.85-4.25h24.13l.85,4.25c.34,1.66,1.79,2.85,3.49,2.86h2.45c1.69,0,3.15-1.2,3.49-2.86l.87-4.33c4.62-.58,8.08-4.51,8.09-9.17V30.51c0-5.1-4.14-9.24-9.25-9.25"/>
</svg>