<?xml version="1.0" encoding="UTF-8"?>
<svg id="Layer_1" xmlns="http://www.w3.org/2000/svg" version="1.1" viewBox="0 0 109 104">
  <!-- Generator: Adobe Illustrator 29.0.1, SVG Export Plug-In . SVG Version: 2.1.0 Build 192)  -->
  <defs>
    <style>
      .st0 {
        fill: #024959;
      }
    </style>
  </defs>
  <path class="st0" d="M65.69,43.64c.06.03.11.06.17.08.3.09.64-.04.81-.32l8.46-13.94c.21-.34.1-.78-.24-.98-.33-.2-.78-.1-.98.24l-8.46,13.94c-.2.34-.1.78.24.98M54.35,39.86c0,.33.22.61.52.7.06.02.12.03.19.03.4,0,.72-.31.72-.71l.21-16.31c0-.4-.32-.72-.71-.72-.39,0-.72.31-.72.71l-.21,16.31ZM69.96,90.99c-.18-4.87-.3-9.53-.41-13.71-.34-12.91-.59-22.65-2.33-27.22l2.99.86c2.62,4.39,3.75,29.67,4.2,40.17-.8.03-2.31.04-4.45-.09M62.31,92.58c.12-3.32.26-6.69.4-10.01.63-15.38,1.18-28.89.12-33.77l2.57.74c2.08,3.48,2.36,14.23,2.72,27.78.12,4.77.26,10.15.49,15.77-1.11-.05-3.37-.18-6.3-.5M46.17,91.64c-6.07-1.74-11.96-4.41-13.92-5.34.23-.39.45-.79.68-1.18,0,0,0,0,0,0h0c1.76-3.06,3.53-6.16,5.27-9.23,7.52-13.21,15.29-26.86,18.15-28.96l4.88,1.4c1.31,3.29.67,18.98.05,34.17-.14,3.53-.29,7.1-.42,10.62h0s0,0,0,0c-.02.45-.04.91-.05,1.36-2.16-.26-8.56-1.11-14.63-2.85M26.38,80.97c3.17-4.64,6.14-9.13,8.77-13.11,7.48-11.31,13.42-20.28,17.03-22.12l2.57.74c-3.49,3.58-10.18,15.33-17.79,28.71-1.64,2.89-3.31,5.82-4.97,8.7-2.66-1.28-4.65-2.36-5.61-2.91M22.52,76.21c5.95-8.67,20.31-29.51,24.85-31.84l2.99.86c-3.89,2.95-9.27,11.08-16.4,21.85-2.31,3.49-4.88,7.38-7.62,11.41-1.88-1.02-3.16-1.83-3.82-2.28M50.09,20.32l12.16-8.37c.93,2.38,2.75,3.99,5.41,4.75,3.09.89,5.42.16,7.13-1.11l5.84,13.44c.87,2.46.49,4.39-1.4,7.13l-8.86,13.31-8.44-2.42-5.5-1.58-8.43-2.42-.46-16c-.17-3.27.53-5.1,2.55-6.74M64.23,6.7c.2,4.07,1.61,6.5,4.22,7.25,3.42.98,6.11-1.99,7.43-3.9l.7,1.26c-.51.92-1.16,1.84-1.98,2.59-.02.02-.05.04-.06.06-1.52,1.37-3.62,2.18-6.48,1.36-3.47-1-5.18-3.66-5.09-7.93l1.26-.7ZM72.22,11.83c-1.05.72-2.21,1.08-3.38.74-1.13-.33-1.97-1.14-2.5-2.42.92.4,1.86.74,2.83,1.02.99.28,2.01.5,3.05.66M74.67,9.29c-.31.45-.66.88-1.02,1.28-2.78-.28-5.4-1.03-7.81-2.22-.09-.5-.14-1.05-.17-1.63,1.38.71,2.83,1.29,4.32,1.72,1.51.43,3.08.71,4.69.85M75.87,91.73c-.76-17.97-1.88-36.79-4.35-41.41l8.89-13.36c1.8-2.6,2.75-5.03,1.55-8.45l-6.04-13.91c.94-.97,1.64-2.06,2.11-2.97.11-.21.11-.47,0-.67l-1.47-2.65s-.06-.08-.09-.12c0,0-.01-.02-.02-.02-.06-.06-.12-.11-.2-.14-.02,0-.04-.02-.05-.02-.07-.03-.14-.05-.22-.05,0,0-.01,0-.02,0-3.85-.14-7.44-1.17-10.67-3.06,0,0,0,0,0,0-.07-.04-.15-.06-.23-.08-.02,0-.04,0-.07-.01-.08,0-.16,0-.23.02,0,0-.02,0-.03.01-.05.01-.1.03-.14.06l-2.65,1.47c-.22.12-.36.34-.37.59-.06,1.31.03,2.5.26,3.57l-12.59,8.66c-2.41,1.95-3.31,4.26-3.12,7.94l.46,16.05c-4.54,2.61-15.46,17.98-25.63,32.82-.22.32-.15.75.16.97.06.05,1.49,1.11,4.43,2.72-.26.38-.51.75-.77,1.12-.11.16-.15.36-.11.56.04.19.16.36.33.46.1.06,2.46,1.47,6.29,3.31-.22.38-.43.75-.65,1.13-.1.17-.12.38-.06.56.06.19.19.35.37.43.07.04,7.32,3.6,14.85,5.76,7.54,2.16,15.57,2.98,15.65,2.99.2.02.39-.04.54-.17.15-.13.24-.32.24-.51.01-.43.03-.87.05-1.3,4.22.47,6.97.52,7.09.52.2,0,.39-.07.52-.21.14-.14.21-.33.2-.53-.02-.46-.04-.91-.06-1.36,3.35.2,5.12.05,5.2.05.38-.03.67-.36.65-.74"/>
</svg>