<?xml version="1.0" encoding="UTF-8"?>
<svg id="Layer_1" xmlns="http://www.w3.org/2000/svg" version="1.1" viewBox="0 0 109 104">
  <!-- Generator: Adobe Illustrator 29.0.1, SVG Export Plug-In . SVG Version: 2.1.0 Build 192)  -->
  <defs>
    <style>
      .st0 {
        fill: #ffd100;
      }

      .st1 {
        fill: #037e8c;
      }
    </style>
  </defs>
  <path class="st1" d="M135.8,837.29h-48.33c-.53,0-.96.43-.96.96s.43.96.96.96h48.33v1.38c0,4.76-3.87,8.62-8.63,8.63h-44.91c-4.76,0-8.62-3.87-8.63-8.63v-1.38h8.56c.53,0,.96-.43.96-.96s-.43-.96-.96-.96h-8.56v-7.67h62.16v7.67ZM104.96,856.88l-9.09-5.74h18.18l-9.09,5.74ZM110.17,802.33c6.74.16,13.16,2.93,17.91,7.71.05.05.09.1.14.14l-3.04,1.97c-.44.29-.57.88-.28,1.33.29.44.88.57,1.33.28l3.26-2.11c4.12,5.6,6.09,10.62,6.3,16.06h-31.08l17.84-11.56c.29-.18.46-.51.44-.86-.02-.34-.22-.65-.52-.81-.31-.16-.67-.13-.96.06l-18.39,11.92,7.06-24.13ZM116.18,865.67c2.02-1.08,4.51-.68,6.09.97,1.58,1.66,1.86,4.17.69,6.13s-3.52,2.9-5.73,2.29c-2.21-.61-3.74-2.62-3.74-4.91,0-1.88,1.03-3.6,2.68-4.49M96.41,870.16c0,2.81-2.28,5.09-5.09,5.09s-5.09-2.28-5.09-5.09,2.28-5.09,5.09-5.09c.84,0,1.67.2,2.41.6,1.65.89,2.69,2.61,2.69,4.49M130.47,809.77s-.03-.04-.05-.06c-.32-.35-.65-.7-.98-1.03-5.29-5.32-12.49-8.3-19.99-8.28-.43,0-.8.28-.92.69l-7.79,26.62h-24.9v-6.78c0-3.88-3.15-7.03-7.03-7.03h-2.18c-.53,0-.96.43-.96.96s.43.96.96.96h2.18c2.82,0,5.11,2.29,5.11,5.11v6.78h-1.25c-.53,0-.96.43-.96.96v11.92c0,5.82,4.72,10.54,10.55,10.55h10.01l10.88,6.88-9.04,5.72c-3.36-1.46-7.28-.09-9,3.15-1.71,3.24-.64,7.26,2.46,9.21,3.1,1.96,7.19,1.19,9.37-1.75,2.19-2.94,1.73-7.07-1.04-9.48l9.04-5.71,9.04,5.72c-2.77,2.4-3.23,6.54-1.04,9.49,2.19,2.95,6.28,3.71,9.38,1.76,3.1-1.96,4.18-5.98,2.46-9.22-1.72-3.24-5.64-4.62-9.01-3.15l-9.05-5.72,10.88-6.88h9.53c5.82,0,10.54-4.73,10.55-10.55v-11.92c0-6.49-2.23-12.32-7.24-18.89M97.26,831.82h-14.62c-.53,0-.96.43-.96.96s.43.96.96.96h14.62c.53,0,.96-.43.96-.96s-.43-.96-.96-.96M79.73,831.82h-.74c-.53,0-.96.43-.96.96s.43.96.96.96h.74c.53,0,.96-.43.96-.96s-.43-.96-.96-.96M118.59,868.99c.64,0,1.17.52,1.17,1.17,0,.64-.52,1.17-1.17,1.17-.64,0-1.17-.52-1.17-1.17,0-.64.52-1.17,1.17-1.17M118.59,873.24c1.7,0,3.08-1.38,3.08-3.09s-1.38-3.08-3.08-3.08-3.09,1.38-3.09,3.08c0,1.7,1.38,3.08,3.09,3.09M91.32,871.32c-.64,0-1.17-.52-1.17-1.17,0-.64.52-1.17,1.17-1.17s1.17.52,1.17,1.17-.52,1.17-1.17,1.17M91.32,867.07c-1.7,0-3.08,1.38-3.08,3.09,0,1.7,1.38,3.08,3.09,3.08,1.7,0,3.08-1.38,3.08-3.09,0-1.7-1.38-3.08-3.09-3.08"/>
  <path class="st0" d="M93.22,44.95l-1.82-.52.79-2.75,1.82.52-.79,2.75ZM90.04,39.71l-1.51,5.25-1.53,5.35c-.21.75-.99,1.18-1.74.96l-7.02-2.01-2.54-.73.58-2.01c.22.07.45.14.73.22,1.15.33,2.84.78,5.32,1.43.7.18,1.41-.24,1.59-.93.18-.7-.24-1.46-.93-1.59-2.23-.58-4.65-1.24-5.99-1.64l1-3.5c.22.07.46.14.73.21,1.15.33,2.84.78,5.32,1.43.7.18,1.41-.23,1.59-.93.18-.7-.24-1.47-.93-1.59-2.23-.58-4.65-1.24-5.99-1.64l1-3.5c.22.07.46.14.73.22,1.15.33,2.84.78,5.32,1.43.7.18,1.41-.23,1.59-.93.18-.7-.25-1.44-.93-1.59-2.23-.58-4.65-1.24-5.99-1.64l.6-2.09,9.57,2.74c.75.21,1.18.99.96,1.74l-1.53,5.35ZM75.6,53.74l-2.54-.73-11.53-3.3-6.27-1.8-2.03-.58.67-2.33,22.37,6.41-.67,2.33ZM65.15,75.86l-9.02-2.59,3.77-13.13,2.17-7.58,9.02,2.59-5.94,20.7ZM62.7,84.43l-14.08-4.04,6.18-4.8,9.64,2.76-1.74,6.07ZM56.43,57.79c-1.35-.39-2.13-1.8-1.74-3.14l1.11-3.88,3.77,1.08-1.81,6.32-1.33-.38ZM49.48,41.01c-.75-.21-1.18-.99-.96-1.74l.05-.17s.03-.04.04-.07c0-.02,0-.05,0-.08l4.39-15.32s.03-.04.04-.07c0-.02,0-.05,0-.08l.05-.17c.21-.74.99-1.18,1.74-.96l23.72,6.8-5.35,18.65-19.83-5.69-3.89-1.11ZM46.44,37.06l-6.01-1.72.12-.43,3.47-12.11.12-.43,6.01,1.72-3.72,12.96ZM38.49,32.62l-7.96-4.42,1.44-5.01,9.09.47-2.57,8.96ZM95.98,40.06l-3.08-.88,1.17-4.09c.61-2.13-.62-4.35-2.75-4.96l-35.78-10.26c-1.77-.51-3.6.28-4.52,1.78l-7.42-2.13c-.69-.2-1.41.2-1.61.89l-.2.68-10.73-.56c-.6-.03-1.15.36-1.32.94l-.65,2.25-6.48-1.86c-.69-.2-1.41.2-1.61.89-.2.69.2,1.41.89,1.61l6.48,1.86-.64,2.25c-.17.58.09,1.2.62,1.5l9.39,5.21-.2.68c-.2.69.2,1.41.89,1.61l7.42,2.13c-.02,1.76,1.12,3.4,2.89,3.9l2.64.76-1.03,3.59c-.2.69.2,1.41.89,1.61l2.03.58-1.11,3.88c-.78,2.73.8,5.58,3.53,6.37l1.33.38-3.65,12.72-8.4,6.51c-.39.3-.57.79-.48,1.27.09.48.45.87.92,1.01l17.8,5.1c.69.2,1.41-.2,1.61-.89l2.46-8.57,6.3-21.96,2.54.73c.69.2,1.41-.2,1.61-.89l1.03-3.59,5.77,1.65c2.13.61,4.35-.62,4.96-2.75l1.17-4.1,3.08.88c.69.2,1.41-.2,1.61-.89l1.51-5.25c.2-.69-.2-1.41-.89-1.61"/>
</svg>