<?xml version="1.0" encoding="UTF-8"?>
<svg id="Layer_1" xmlns="http://www.w3.org/2000/svg" version="1.1" viewBox="0 0 109 104">
  <!-- Generator: Adobe Illustrator 29.0.1, SVG Export Plug-In . SVG Version: 2.1.0 Build 192)  -->
  <defs>
    <style>
      .st0 {
        fill: #ffd100;
      }

      .st1 {
        fill: #037e8c;
      }
    </style>
  </defs>
  <path class="st1" d="M135.8,837.29h-48.33c-.53,0-.96.43-.96.96s.43.96.96.96h48.33v1.38c0,4.76-3.87,8.62-8.63,8.63h-44.91c-4.76,0-8.62-3.87-8.63-8.63v-1.38h8.56c.53,0,.96-.43.96-.96s-.43-.96-.96-.96h-8.56v-7.67h62.16v7.67ZM104.96,856.88l-9.09-5.74h18.18l-9.09,5.74ZM110.17,802.33c6.74.16,13.16,2.93,17.91,7.71.05.05.09.1.14.14l-3.04,1.97c-.44.29-.57.88-.28,1.33.29.44.88.57,1.33.28l3.26-2.11c4.12,5.6,6.09,10.62,6.3,16.06h-31.08l17.84-11.56c.29-.18.46-.51.44-.86-.02-.34-.22-.65-.52-.81-.31-.16-.67-.13-.96.06l-18.39,11.92,7.06-24.13ZM116.18,865.67c2.02-1.08,4.51-.68,6.09.97,1.58,1.66,1.86,4.17.69,6.13s-3.52,2.9-5.73,2.29c-2.21-.61-3.74-2.62-3.74-4.91,0-1.88,1.03-3.6,2.68-4.49M96.41,870.16c0,2.81-2.28,5.09-5.09,5.09s-5.09-2.28-5.09-5.09,2.28-5.09,5.09-5.09c.84,0,1.67.2,2.41.6,1.65.89,2.69,2.61,2.69,4.49M130.47,809.77s-.03-.04-.05-.06c-.32-.35-.65-.7-.98-1.03-5.29-5.32-12.49-8.3-19.99-8.28-.43,0-.8.28-.92.69l-7.79,26.62h-24.9v-6.78c0-3.88-3.15-7.03-7.03-7.03h-2.18c-.53,0-.96.43-.96.96s.43.96.96.96h2.18c2.82,0,5.11,2.29,5.11,5.11v6.78h-1.25c-.53,0-.96.43-.96.96v11.92c0,5.82,4.72,10.54,10.55,10.55h10.01l10.88,6.88-9.04,5.72c-3.36-1.46-7.28-.09-9,3.15-1.71,3.24-.64,7.26,2.46,9.21,3.1,1.96,7.19,1.19,9.37-1.75,2.19-2.94,1.73-7.07-1.04-9.48l9.04-5.71,9.04,5.72c-2.77,2.4-3.23,6.54-1.04,9.49,2.19,2.95,6.28,3.71,9.38,1.76,3.1-1.96,4.18-5.98,2.46-9.22-1.72-3.24-5.64-4.62-9.01-3.15l-9.05-5.72,10.88-6.88h9.53c5.82,0,10.54-4.73,10.55-10.55v-11.92c0-6.49-2.23-12.32-7.24-18.89M97.26,831.82h-14.62c-.53,0-.96.43-.96.96s.43.96.96.96h14.62c.53,0,.96-.43.96-.96s-.43-.96-.96-.96M79.73,831.82h-.74c-.53,0-.96.43-.96.96s.43.96.96.96h.74c.53,0,.96-.43.96-.96s-.43-.96-.96-.96M118.59,868.99c.64,0,1.17.52,1.17,1.17,0,.64-.52,1.17-1.17,1.17-.64,0-1.17-.52-1.17-1.17,0-.64.52-1.17,1.17-1.17M118.59,873.24c1.7,0,3.08-1.38,3.08-3.09s-1.38-3.08-3.08-3.08-3.09,1.38-3.09,3.08c0,1.7,1.38,3.08,3.09,3.09M91.32,871.32c-.64,0-1.17-.52-1.17-1.17,0-.64.52-1.17,1.17-1.17s1.17.52,1.17,1.17-.52,1.17-1.17,1.17M91.32,867.07c-1.7,0-3.08,1.38-3.08,3.09,0,1.7,1.38,3.08,3.09,3.08,1.7,0,3.08-1.38,3.08-3.09,0-1.7-1.38-3.08-3.09-3.08"/>
  <path class="st0" d="M88.64,53.94s-30.41,0-30.46,0l-.3-.89,3.56-1.02c.81-.23,1.55-.63,2.18-1.14,1.02.91,2.36,1.44,3.77,1.44,1.66,0,3.16-.72,4.2-1.87,1.04,1.15,2.53,1.87,4.19,1.87,1.57,0,3-.65,4.03-1.68.93,1.03,2.27,1.68,3.77,1.68,2.79,0,5.06-2.27,5.06-5.06v-2.13c2.42,0,4.4,1.97,4.4,4.4s-1.97,4.4-4.4,4.4M82.24,69.48c-.08.18-.12.38-.12.58v13.18h-11.44l-.02-11.82c0-.81-.66-1.46-1.46-1.46h0c-.81,0-1.46.66-1.46,1.47l.02,11.82h-9.07v-11.99c0-.36-.13-.71-.37-.97l-6.97-7.84c-1.45-1.63-2.25-3.73-2.25-5.91v-5.65c0-1.23.41-2.45,1.15-3.44,1.08-1.43,2.79-2.29,4.58-2.29h7.09c.57,0,1.04.47,1.04,1.04,0,1.4-.94,2.65-2.29,3.04l-5.03,1.44c-.38.11-.71.37-.89.73-.19.35-.22.77-.09,1.15l1.2,3.6c.17.5.59.87,1.1.97l6,1.2c2.78.56,4.8,3.02,4.8,5.86v1.1c0,.81.66,1.46,1.47,1.46s1.47-.66,1.47-1.46v-1.1c0-2.97-1.49-5.67-3.81-7.3h18.64c-.44,4.35-1.53,8.58-3.26,12.61M44.69,53.94c-.23,0-.45.05-.66.15l-.81.4v-9.91l.81.4c.2.1.43.15.66.15h3.64c-.15.17-.3.35-.44.53-1.12,1.49-1.73,3.33-1.73,5.19v3.06h-1.47ZM13.07,51.01l-1.46-1.47,1.46-1.47h27.23v2.93H13.07ZM59.01,35.56c1.51,0,2.73,1.22,2.73,2.73v3.93h-5.46v-3.93c0-1.51,1.22-2.73,2.73-2.73M67.4,35.56c1.51,0,2.73,1.22,2.73,2.73v8.39c0,1.51-1.22,2.73-2.73,2.73-.77,0-1.49-.33-2.01-.88.31-.73.47-1.52.47-2.34,0-1.11-.46-2.12-1.2-2.84v-5.06c0-1.51,1.22-2.73,2.73-2.73M75.79,35.56c1.51,0,2.73,1.22,2.73,2.73v8.39c0,1.51-1.22,2.73-2.73,2.73s-2.73-1.22-2.73-2.73v-8.39c0-1.51,1.23-2.73,2.73-2.73M81.45,37.69c0-1.18.96-2.13,2.13-2.13s2.13.96,2.13,2.13v9.59c0,1.17-.96,2.13-2.13,2.13s-2.13-.96-2.13-2.13v-9.59ZM88.64,42.22v-4.53c0-2.79-2.27-5.06-5.06-5.06-1.5,0-2.84.65-3.77,1.68-1.03-1.04-2.45-1.68-4.03-1.68-1.66,0-3.16.72-4.19,1.86-1.04-1.14-2.53-1.86-4.2-1.86s-3.16.72-4.2,1.86c-1.04-1.14-2.53-1.86-4.2-1.86-3.12,0-5.66,2.54-5.66,5.66v3.93h-8.31l-2.62-1.31c-.45-.23-.99-.2-1.43.06s-.7.74-.7,1.25v2.93H12.46c-.39,0-.76.15-1.04.43l-2.93,2.93c-.57.57-.57,1.5,0,2.07l2.93,2.93c.28.27.65.43,1.04.43h27.84v2.93c0,.51.26.98.7,1.25.24.15.5.22.77.22.22,0,.45-.05.65-.15l2.62-1.31h1.13c.08,2.78,1.13,5.43,2.98,7.51l6.6,7.43v12.9c0,.81.66,1.46,1.47,1.46h26.37c.81,0,1.46-.66,1.46-1.46v-14.35c1.81-4.31,2.95-8.84,3.39-13.48h.21c4.04,0,7.33-3.29,7.33-7.33s-3.29-7.33-7.33-7.33"/>
</svg>