<?xml version="1.0" encoding="UTF-8"?>
<svg id="Layer_1" xmlns="http://www.w3.org/2000/svg" version="1.1" viewBox="0 0 109 104">
  <!-- Generator: Adobe Illustrator 29.0.1, SVG Export Plug-In . SVG Version: 2.1.0 Build 192)  -->
  <defs>
    <style>
      .st0 {
        fill: #024959;
      }
    </style>
  </defs>
  <path class="st0" d="M28.75,77.94c.15-.53.58-.9,1.08-1,.16-.03.33-.03.5,0,1.97.32,3.95.58,5.93.76,0,0,.01,0,.02,0,0,0,.01,0,.02,0,12.42,1.13,24.9-.55,36.52-4.85.02,0,.04-.02.07-.02,4.96-1.84,9.76-4.16,14.33-6.94.61-.37,1.4-.23,1.84.34.24.32.34.71.27,1.11-.07.4-.3.73-.64.94-17.56,10.88-38.45,14.94-58.81,11.43-.4-.07-.73-.29-.95-.63-.21-.34-.27-.74-.17-1.13M39.14,62.27s2.53-.02,3.18-.04l-1.5,13.48c-1.05-.04-2.1-.1-3.15-.18l1.48-13.25ZM31.01,47.65c-1-.05-1.92-.54-2.53-1.33l-.7-.91,6.09-1.18c1.4-.27,2.81.44,3.42,1.73l2.14,5.09c-.27,0-3.63.03-3.63.03l-.13-.28c-.86-1.83-2.64-3.04-4.66-3.15M66.32,48.25l5.25-1.89,1.3,6.67-5.59,2.01c-8.75,3.26-17.55,4.88-26.91,4.94l-3.22.02-1.3-6.66,2.8-.02c9.63-.06,18.69-1.73,27.68-5.08M57.58,41.41c-.04-3.88.89-7.75,2.69-11.19,2.32-4.42,6.04-8.04,10.52-10.23l1.02,5.27c.06.3.23.56.48.73l7.32,4.94c.85.57,1.27,1.59,1.08,2.6-.26,1.38-1.6,2.29-2.99,2.03l-.21-.04c-1.29-.25-2.5-.74-3.59-1.48-.79-.53-1.73-.72-2.66-.54-1.92.37-3.18,2.24-2.81,4.16l1.35,6.94-4.24,1.52c-2.51.93-5.01,1.73-7.54,2.4l-.42-7.1ZM55.25,60.81c2.96-.58,5.89-1.32,8.8-2.24l6.79,12.58c-8.9,3.14-18.29,4.71-27.74,4.62l1.52-13.63c3.61-.21,7.14-.64,10.64-1.32M75.93,69.15c-.97.42-1.95.82-2.94,1.2l-6.75-12.51c.6-.21,3-1.08,3-1.08l6.69,12.39ZM29.48,81.94c10.46,1.8,21.04,1.66,31.27-.33,10.23-1.99,20.1-5.83,29.12-11.41.88-.55,1.49-1.45,1.68-2.47.19-1.02-.07-2.08-.7-2.9-1.15-1.49-3.22-1.88-4.83-.9-2.6,1.58-5.27,3.01-8.01,4.28l-6.6-12.24,3.15-1.13c.53-.19.84-.74.73-1.29l-1.74-8.93c-.06-.33-.27-.61-.55-.77-.29-.16-.63-.19-.95-.08l-.11.04-1.28-6.59c-.14-.69.32-1.36,1.01-1.49.34-.07.67,0,.96.2,1.35.91,2.84,1.52,4.44,1.83l.21.04c2.62.5,5.15-1.22,5.65-3.84.36-1.9-.44-3.83-2.04-4.91l-6.93-4.67-1.21-6.24c-.07-.34-.29-.64-.6-.8-.31-.16-.68-.16-1-.02l-.95.44c-5.09,2.38-9.33,6.43-11.94,11.41-1.98,3.78-3,8.03-2.95,12.3,0,.02,0,.03,0,.05l.45,7.55c-4.54,1.05-9.15,1.68-13.88,1.9l-2.49-5.92s-.01-.03-.02-.04c-1.05-2.25-3.49-3.49-5.93-3.02l-7.9,1.53c-.39.08-.71.35-.85.72-.14.37-.08.78.16,1.1l1.83,2.37c1.01,1.32,2.55,2.12,4.21,2.21,1.12.06,2.11.69,2.64,1.67-.17.25-.23.55-.17.85l1.74,8.93c.1.54.58.92,1.12.92h.63s-1.45,13.03-1.45,13.03c-1.57-.16-3.14-.37-4.7-.63-1.85-.3-3.63.83-4.14,2.64-.28,1-.12,2.08.44,2.95.55.88,1.46,1.48,2.48,1.66"/>
</svg>