<?xml version="1.0" encoding="UTF-8"?>
<svg id="Layer_1" xmlns="http://www.w3.org/2000/svg" version="1.1" viewBox="0 0 109 104">
  <!-- Generator: Adobe Illustrator 29.0.1, SVG Export Plug-In . SVG Version: 2.1.0 Build 192)  -->
  <defs>
    <style>
      .st0 {
        fill: #037e8c;
      }
    </style>
  </defs>
  <path class="st0" d="M59.52,50.74v12.37h-3.87v-7.75h-7.75v7.75h-3.87v-12.37l7.75-5.42,7.75,5.42ZM53.07,63.11h-2.58v-5.16h2.58v5.16ZM62.11,65.69v-13.14l1.84,1.29,1.48-2.12-7.19-5.04v-4.23h-2.58v2.43l-3.87-2.71-13.65,9.56,1.48,2.12,1.84-1.29v13.14h20.66ZM34.99,55.36c0-9.26,7.53-16.78,16.78-16.78s16.78,7.53,16.78,16.78-7.53,16.78-16.78,16.78-16.78-7.53-16.78-16.78M71.14,55.36c0-10.68-8.69-19.37-19.37-19.37s-19.37,8.69-19.37,19.37,8.69,19.37,19.37,19.37,19.37-8.69,19.37-19.37M51.78,32.12c13.9,0,23.24,9.86,23.24,24.53s-19.2,28.97-23.24,31.97c-4.04-3-23.24-17.99-23.24-31.97,0-14.67,9.34-24.53,23.24-24.53M51.04,91.28l.74.52.74-.52c1.02-.72,25.08-17.75,25.08-34.63,0-15.96-10.62-27.11-25.82-27.11s-25.82,11.15-25.82,27.11c0,16.88,24.06,33.91,25.08,34.62"/>
</svg>