<?xml version="1.0" encoding="UTF-8"?>
<svg id="Layer_1" xmlns="http://www.w3.org/2000/svg" version="1.1" viewBox="0 0 109 104">
  <!-- Generator: Adobe Illustrator 29.0.1, SVG Export Plug-In . SVG Version: 2.1.0 Build 192)  -->
  <defs>
    <style>
      .st0 {
        fill: #ffd100;
      }

      .st1 {
        fill: #037e8c;
      }
    </style>
  </defs>
  <path class="st1" d="M135.8,837.29h-48.33c-.53,0-.96.43-.96.96s.43.96.96.96h48.33v1.38c0,4.76-3.87,8.62-8.63,8.63h-44.91c-4.76,0-8.62-3.87-8.63-8.63v-1.38h8.56c.53,0,.96-.43.96-.96s-.43-.96-.96-.96h-8.56v-7.67h62.16v7.67ZM104.96,856.88l-9.09-5.74h18.18l-9.09,5.74ZM110.17,802.33c6.74.16,13.16,2.93,17.91,7.71.05.05.09.1.14.14l-3.04,1.97c-.44.29-.57.88-.28,1.33.29.44.88.57,1.33.28l3.26-2.11c4.12,5.6,6.09,10.62,6.3,16.06h-31.08l17.84-11.56c.29-.18.46-.51.44-.86-.02-.34-.22-.65-.52-.81-.31-.16-.67-.13-.96.06l-18.39,11.92,7.06-24.13ZM116.18,865.67c2.02-1.08,4.51-.68,6.09.97,1.58,1.66,1.86,4.17.69,6.13s-3.52,2.9-5.73,2.29c-2.21-.61-3.74-2.62-3.74-4.91,0-1.88,1.03-3.6,2.68-4.49M96.41,870.16c0,2.81-2.28,5.09-5.09,5.09s-5.09-2.28-5.09-5.09,2.28-5.09,5.09-5.09c.84,0,1.67.2,2.41.6,1.65.89,2.69,2.61,2.69,4.49M130.47,809.77s-.03-.04-.05-.06c-.32-.35-.65-.7-.98-1.03-5.29-5.32-12.49-8.3-19.99-8.28-.43,0-.8.28-.92.69l-7.79,26.62h-24.9v-6.78c0-3.88-3.15-7.03-7.03-7.03h-2.18c-.53,0-.96.43-.96.96s.43.96.96.96h2.18c2.82,0,5.11,2.29,5.11,5.11v6.78h-1.25c-.53,0-.96.43-.96.96v11.92c0,5.82,4.72,10.54,10.55,10.55h10.01l10.88,6.88-9.04,5.72c-3.36-1.46-7.28-.09-9,3.15-1.71,3.24-.64,7.26,2.46,9.21,3.1,1.96,7.19,1.19,9.37-1.75,2.19-2.94,1.73-7.07-1.04-9.48l9.04-5.71,9.04,5.72c-2.77,2.4-3.23,6.54-1.04,9.49,2.19,2.95,6.28,3.71,9.38,1.76,3.1-1.96,4.18-5.98,2.46-9.22-1.72-3.24-5.64-4.62-9.01-3.15l-9.05-5.72,10.88-6.88h9.53c5.82,0,10.54-4.73,10.55-10.55v-11.92c0-6.49-2.23-12.32-7.24-18.89M97.26,831.82h-14.62c-.53,0-.96.43-.96.96s.43.96.96.96h14.62c.53,0,.96-.43.96-.96s-.43-.96-.96-.96M79.73,831.82h-.74c-.53,0-.96.43-.96.96s.43.96.96.96h.74c.53,0,.96-.43.96-.96s-.43-.96-.96-.96M118.59,868.99c.64,0,1.17.52,1.17,1.17,0,.64-.52,1.17-1.17,1.17-.64,0-1.17-.52-1.17-1.17,0-.64.52-1.17,1.17-1.17M118.59,873.24c1.7,0,3.08-1.38,3.08-3.09s-1.38-3.08-3.08-3.08-3.09,1.38-3.09,3.08c0,1.7,1.38,3.08,3.09,3.09M91.32,871.32c-.64,0-1.17-.52-1.17-1.17,0-.64.52-1.17,1.17-1.17s1.17.52,1.17,1.17-.52,1.17-1.17,1.17M91.32,867.07c-1.7,0-3.08,1.38-3.08,3.09,0,1.7,1.38,3.08,3.09,3.08,1.7,0,3.08-1.38,3.08-3.09,0-1.7-1.38-3.08-3.09-3.08"/>
  <polygon class="st0" points="132.13 49.44 98.83 16.15 82.01 32.97 48.48 -.55 31.72 16.21 -1.78 -17.29 -18.27 -.8 -18.86 -1.4 -1.78 -18.48 31.72 15.03 48.49 -1.73 82.01 31.79 98.84 14.97 132.72 48.85 132.13 49.44"/>
  <polygon class="st0" points="132.14 65.98 98.85 32.69 82.03 49.51 48.51 15.98 31.74 32.75 -1.77 -.75 -18.25 15.73 -18.84 15.14 -1.77 -1.94 31.74 31.57 48.51 14.8 82.03 48.33 98.85 31.5 132.73 65.38 132.14 65.98"/>
  <polygon class="st0" points="132.13 82.96 98.84 49.67 82.02 66.49 48.5 32.97 31.74 49.73 -1.77 16.23 -18.25 32.71 -18.85 32.12 -1.77 15.04 31.74 48.54 48.5 31.78 82.02 65.31 98.84 48.48 132.73 82.36 132.13 82.96"/>
  <polygon class="st0" points="132.15 99.49 98.86 66.2 82.04 83.02 48.51 49.5 31.75 66.26 -1.75 32.76 -18.24 49.24 -18.83 48.66 -1.75 31.57 31.75 65.07 48.51 48.31 82.04 81.84 98.86 65.02 132.75 98.9 132.15 99.49"/>
  <polygon class="st0" points="132.14 116.47 98.85 83.18 82.02 100 48.5 66.48 31.74 83.25 -1.77 49.74 -18.25 66.22 -18.84 65.63 -1.77 48.55 31.74 82.06 48.5 65.29 82.02 98.82 98.85 81.99 132.73 115.88 132.14 116.47"/>
  <polygon class="st0" points="132.15 133.01 98.86 99.72 82.04 116.54 48.52 83.02 31.75 99.78 -1.75 66.28 -18.24 82.76 -18.83 82.17 -1.75 65.09 31.75 98.59 48.52 81.83 82.04 115.35 98.86 98.53 132.75 132.42 132.15 133.01"/>
  <polygon class="st0" points="82.03 133.52 48.51 100 31.74 116.76 -1.76 83.25 -18.25 99.74 -18.84 99.15 -1.76 82.07 31.74 115.57 48.51 98.81 82.03 132.33 98.85 115.51 115.81 132.47 115.22 133.07 98.85 116.7 82.03 133.52"/>
  <polygon class="st0" points="31.76 133.3 -1.75 99.79 -18.23 116.28 -18.83 115.68 -1.75 98.61 31.76 132.11 48.52 115.34 65.81 132.63 65.22 133.23 48.52 116.53 31.76 133.3"/>
  <polygon class="st0" points="132.15 32.46 98.86 -.83 82.04 16 48.52 -17.53 31.75 -.76 14.71 -17.8 15.31 -18.4 31.75 -1.95 48.52 -18.72 82.04 14.81 98.86 -2.01 132.75 31.88 132.15 32.46"/>
  <polygon class="st0" points="132.13 15.93 98.83 -17.36 82.01 -.54 64.81 -17.75 65.4 -18.34 82.01 -1.73 98.83 -18.55 132.72 15.34 132.13 15.93"/>
</svg>