<?xml version="1.0" encoding="UTF-8"?>
<svg id="Layer_1" xmlns="http://www.w3.org/2000/svg" version="1.1" viewBox="0 0 109 104">
  <!-- Generator: Adobe Illustrator 29.0.1, SVG Export Plug-In . SVG Version: 2.1.0 Build 192)  -->
  <defs>
    <style>
      .st0 {
        fill: #037e8c;
      }
    </style>
  </defs>
  <path class="st0" d="M135.8,837.29h-48.33c-.53,0-.96.43-.96.96s.43.96.96.96h48.33v1.38c0,4.76-3.87,8.62-8.63,8.63h-44.91c-4.76,0-8.62-3.87-8.63-8.63v-1.38h8.56c.53,0,.96-.43.96-.96s-.43-.96-.96-.96h-8.56v-7.67h62.16v7.67ZM104.96,856.88l-9.09-5.74h18.18l-9.09,5.74ZM110.17,802.33c6.74.16,13.16,2.93,17.91,7.71.05.05.09.1.14.14l-3.04,1.97c-.44.29-.57.88-.28,1.33.29.44.88.57,1.33.28l3.26-2.11c4.12,5.6,6.09,10.62,6.3,16.06h-31.08l17.84-11.56c.29-.18.46-.51.44-.86-.02-.34-.22-.65-.52-.81-.31-.16-.67-.13-.96.06l-18.39,11.92,7.06-24.13ZM116.18,865.67c2.02-1.08,4.51-.68,6.09.97,1.58,1.66,1.86,4.17.69,6.13s-3.52,2.9-5.73,2.29c-2.21-.61-3.74-2.62-3.74-4.91,0-1.88,1.03-3.6,2.68-4.49M96.41,870.16c0,2.81-2.28,5.09-5.09,5.09s-5.09-2.28-5.09-5.09,2.28-5.09,5.09-5.09c.84,0,1.67.2,2.41.6,1.65.89,2.69,2.61,2.69,4.49M130.47,809.77s-.03-.04-.05-.06c-.32-.35-.65-.7-.98-1.03-5.29-5.32-12.49-8.3-19.99-8.28-.43,0-.8.28-.92.69l-7.79,26.62h-24.9v-6.78c0-3.88-3.15-7.03-7.03-7.03h-2.18c-.53,0-.96.43-.96.96s.43.96.96.96h2.18c2.82,0,5.11,2.29,5.11,5.11v6.78h-1.25c-.53,0-.96.43-.96.96v11.92c0,5.82,4.72,10.54,10.55,10.55h10.01l10.88,6.88-9.04,5.72c-3.36-1.46-7.28-.09-9,3.15-1.71,3.24-.64,7.26,2.46,9.21,3.1,1.96,7.19,1.19,9.37-1.75,2.19-2.94,1.73-7.07-1.04-9.48l9.04-5.71,9.04,5.72c-2.77,2.4-3.23,6.54-1.04,9.49,2.19,2.95,6.28,3.71,9.38,1.76,3.1-1.96,4.18-5.98,2.46-9.22-1.72-3.24-5.64-4.62-9.01-3.15l-9.05-5.72,10.88-6.88h9.53c5.82,0,10.54-4.73,10.55-10.55v-11.92c0-6.49-2.23-12.32-7.24-18.89M97.26,831.82h-14.62c-.53,0-.96.43-.96.96s.43.96.96.96h14.62c.53,0,.96-.43.96-.96s-.43-.96-.96-.96M79.73,831.82h-.74c-.53,0-.96.43-.96.96s.43.96.96.96h.74c.53,0,.96-.43.96-.96s-.43-.96-.96-.96M118.59,868.99c.64,0,1.17.52,1.17,1.17,0,.64-.52,1.17-1.17,1.17-.64,0-1.17-.52-1.17-1.17,0-.64.52-1.17,1.17-1.17M118.59,873.24c1.7,0,3.08-1.38,3.08-3.09s-1.38-3.08-3.08-3.08-3.09,1.38-3.09,3.08c0,1.7,1.38,3.08,3.09,3.09M91.32,871.32c-.64,0-1.17-.52-1.17-1.17,0-.64.52-1.17,1.17-1.17s1.17.52,1.17,1.17-.52,1.17-1.17,1.17M91.32,867.07c-1.7,0-3.08,1.38-3.08,3.09,0,1.7,1.38,3.08,3.09,3.08,1.7,0,3.08-1.38,3.08-3.09,0-1.7-1.38-3.08-3.09-3.08"/>
  <path class="st0" d="M78.61-23.3c.88,0,1.76-.37,2.37-.98.65-.65,1.02-1.53,1.02-2.41,0-.44-.11-.89-.26-1.29-.17-.41-.41-.78-.74-1.11-.91-.92-2.44-1.22-3.66-.72-.44.17-.82.41-1.11.72-.33.33-.57.7-.74,1.11-.2.41-.27.85-.27,1.29,0,.91.37,1.76.98,2.41.3.31.68.54,1.11.72.41.2.85.26,1.3.26ZM107.23-78.73c.89,0,1.76-.34,2.37-.98.65-.65,1.02-1.5,1.02-2.41s-.37-1.76-1.02-2.41c-1.26-1.26-3.53-1.26-4.79,0-.3.34-.58.72-.74,1.11-.17.41-.24.85-.24,1.29,0,.92.34,1.8.98,2.41.61.65,1.49.99,2.41.99ZM215.1-80.34c.17.17.35.3.5.44.2.11.37.24.58.3.2.11.44.15.64.21.24.03.44.07.68.07.44,0,.89-.11,1.29-.27.41-.17.78-.41,1.09-.74.34-.32.58-.69.76-1.1.17-.41.27-.85.27-1.29,0-.24-.03-.44-.07-.68-.07-.21-.09-.44-.2-.65-.07-.2-.2-.37-.3-.57-.13-.17-.27-.37-.44-.5-.31-.31-.68-.58-1.09-.74-1.26-.5-2.74-.2-3.7.74-.17.13-.3.34-.44.5-.11.2-.21.37-.32.57-.07.2-.13.44-.17.65-.07.24-.07.44-.07.68,0,.44.07.88.24,1.29.17.41.45.78.76,1.09ZM208.98,45.56c.11.2.2.41.34.58.11.17.24.37.41.5.61.65,1.5.98,2.41.98.44,0,.88-.07,1.29-.24.41-.17.78-.44,1.09-.74.16-.15.29-.34.42-.52.11-.17.24-.37.3-.58.11-.2.13-.44.2-.65.04-.23.08-.43.08-.66,0-.44-.11-.88-.27-1.29-.17-.41-.41-.78-.74-1.09-.3-.34-.68-.58-1.09-.74-1.26-.5-2.74-.2-3.7.74-.31.3-.58.68-.74,1.09-.19.4-.25.84-.25,1.29,0,.24,0,.44.07.68.04.2.11.44.17.65ZM258.78,115.66c-.11-.2-.2-.41-.3-.58-.13-.2-.27-.37-.44-.5-.78-.82-1.96-1.15-3.05-.95-.24.07-.44.13-.65.2-.2.11-.41.2-.58.31-.2.13-.37.26-.5.44-.17.13-.3.3-.44.5-.11.17-.2.37-.3.58-.07.2-.13.44-.2.65-.04.21-.08.45-.08.65,0,.92.37,1.76,1.02,2.41.13.17.3.31.5.44.17.11.37.2.58.31.2.07.41.13.65.17.2.07.44.07.64.07.44,0,.88-.07,1.33-.24.41-.17.78-.44,1.09-.74.65-.65.98-1.5.98-2.41,0-.2,0-.44-.07-.65-.03-.2-.11-.44-.17-.64ZM187.52-21.34c0-.88-.37-1.76-1.02-2.41-1.26-1.26-3.53-1.26-4.79,0-.34.34-.58.72-.74,1.11-.17.42-.24.86-.24,1.3s.07.89.24,1.29c.17.44.41.81.74,1.11.61.62,1.5.99,2.41.99.2,0,.44-.03.65-.07.2-.03.44-.09.64-.2.2-.07.41-.17.58-.31.17-.11.37-.27.5-.41.65-.64,1.02-1.52,1.02-2.41ZM203.76,159.9c.34.31.72.54,1.11.74.41.17.85.24,1.29.24.24,0,.44,0,.68-.07.2-.04.41-.11.61-.17.2-.11.41-.2.61-.34.17-.11.34-.24.5-.41.3-.31.54-.68.72-1.09.2-.44.27-.88.27-1.33,0-.89-.37-1.76-.98-2.41-.96-.92-2.44-1.22-3.7-.72-.41.17-.78.41-1.11.72-.61.65-.98,1.53-.98,2.41,0,.44.11.88.27,1.33.18.41.42.8.73,1.1ZM243.57-17.86c-.17.44-.27.85-.27,1.33,0,.89.37,1.76.98,2.37.3.34.68.58,1.11.74.41.17.85.24,1.29.24.89,0,1.76-.34,2.41-.98.61-.61.98-1.5.98-2.37,0-.48-.11-.88-.26-1.33-.17-.41-.41-.78-.72-1.09-.94-.95-2.47-1.26-3.69-.76-.44.17-.81.44-1.11.74s-.56.69-.73,1.1ZM-38.36-76.6c.44.17.89.24,1.33.24s.88-.07,1.29-.24c.41-.17.78-.41,1.09-.74.65-.62,1.02-1.5,1.02-2.39s-.37-1.8-1.02-2.41c-.3-.33-.68-.57-1.09-.74-.85-.35-1.76-.35-2.61,0-.4.17-.78.41-1.09.76-.64.61-.98,1.48-.98,2.4s.34,1.76.98,2.37c.3.35.69.58,1.09.76ZM177.41,204.11c.07.2.17.41.3.58.13.2.27.37.41.5.17.17.34.31.54.44.17.11.37.24.57.3.2.11.41.13.65.2.2.04.44.07.65.07.44,0,.88-.11,1.29-.27.44-.17.82-.41,1.11-.74.61-.61.98-1.5.98-2.37s-.37-1.8-.98-2.41c-.3-.3-.68-.58-1.11-.74-1.22-.5-2.75-.2-3.7.74-.61.65-.98,1.5-.98,2.41,0,.2.03.44.07.65.03.23.09.44.2.64ZM186.31,96.11c0-.91-.34-1.76-.98-2.41-1.26-1.26-3.53-1.26-4.79,0-.65.65-1.02,1.53-1.02,2.41,0,.2.04.44.07.65.07.24.11.44.2.65.07.2.2.41.31.58.13.2.27.37.44.54.13.13.3.27.5.41.17.13.37.24.58.31.2.11.41.17.65.2.2.03.44.07.65.07.92,0,1.8-.37,2.41-.98.64-.66.98-1.55.98-2.43ZM108.83,40.05c0-.88-.37-1.76-.98-2.37-1.26-1.26-3.57-1.26-4.83,0-.61.61-.98,1.5-.98,2.37,0,.48.11.89.27,1.33.17.41.41.78.72,1.09.65.65,1.52,1.02,2.41,1.02s1.76-.37,2.41-1.02c.61-.61.98-1.5.98-2.41ZM-40.53,61.68c.44-.17.82-.41,1.11-.72.61-.65.98-1.53.98-2.41,0-.44-.07-.89-.27-1.29-.16-.44-.4-.82-.7-1.13-.3-.31-.68-.54-1.11-.74-1.22-.5-2.75-.2-3.7.74-.3.3-.54.68-.72,1.11-.17.41-.27.85-.27,1.29,0,.88.37,1.76.98,2.41.64.62,1.52.99,2.4.99.44,0,.89-.11,1.29-.27ZM70.87,205.8c.65-.65.98-1.5.98-2.41s-.34-1.76-.98-2.37c-.96-.96-2.44-1.29-3.7-.74-.41.17-.78.41-1.09.74-.65.61-1.02,1.5-1.02,2.37s.37,1.76,1.02,2.41c.61.65,1.5.98,2.37.98s1.76-.33,2.41-.98ZM4.67-22.52c.3.34.68.58,1.11.74.41.17.85.27,1.29.27.89,0,1.76-.37,2.41-1.02.31-.31.54-.68.72-1.09.17-.41.27-.85.27-1.29,0-.24-.03-.44-.07-.68-.03-.2-.11-.41-.2-.65-.07-.2-.17-.37-.3-.58-.13-.17-.26-.34-.41-.5-.95-.95-2.48-1.26-3.7-.74-.44.17-.81.44-1.11.74-.61.61-.98,1.5-.98,2.41,0,.44.11.89.27,1.29.17.42.41.8.72,1.1ZM-31.66,187.7c.88,0,1.76-.34,2.37-.98.65-.65,1.02-1.5,1.02-2.41s-.37-1.76-1.02-2.37c-.92-.96-2.44-1.26-3.7-.74-.41.17-.78.41-1.09.74-.65.61-.98,1.5-.98,2.37s.34,1.8.98,2.41c.31.3.68.58,1.09.74.44.17.85.24,1.33.24ZM109.61,149.58c.89,0,1.76-.37,2.41-1.02.61-.61.98-1.5.98-2.37s-.37-1.76-.98-2.41c-.34-.3-.72-.58-1.11-.74-1.26-.5-2.74-.2-3.7.74-.65.65-.98,1.5-.98,2.41s.34,1.76.98,2.37c.6.64,1.49,1.02,2.4,1.02h0ZM33.29,152.57c.48,0,.88-.11,1.33-.27.41-.17.78-.41,1.09-.74.65-.65.98-1.5.98-2.37,0-.48-.07-.88-.24-1.33-.17-.41-.44-.78-.74-1.09-.3-.34-.68-.58-1.09-.74-1.26-.5-2.74-.2-3.7.74-.35.3-.58.68-.74,1.09-.17.41-.24.85-.24,1.33,0,.44.07.89.24,1.29.16.4.4.77.74,1.07.61.65,1.48,1.02,2.37,1.02ZM1.27,39.57c.13.17.26.34.41.5.35.3.72.54,1.11.74.41.17.85.24,1.29.24.89,0,1.76-.34,2.41-.98.13-.17.3-.35.41-.5.13-.2.24-.37.3-.58.11-.2.17-.44.2-.65.04-.24.07-.44.07-.68,0-.2-.03-.44-.07-.65-.03-.24-.11-.44-.2-.65-.07-.2-.17-.41-.3-.58-.11-.2-.27-.37-.41-.5-.96-.95-2.44-1.26-3.7-.74-.41.17-.78.41-1.11.74-.61.61-.98,1.5-.98,2.37,0,.24.04.44.07.68.03.22.09.46.2.68.07.2.17.37.31.57ZM30.77,80.11c.07.2.17.41.3.58.11.2.28.36.41.5.34.34.68.58,1.11.74.41.17.85.27,1.29.27s.88-.11,1.29-.27c.41-.17.78-.41,1.11-.74.13-.13.27-.31.41-.5.13-.17.24-.37.3-.58.11-.2.17-.41.2-.65.05-.2.09-.44.09-.65,0-.44-.11-.88-.26-1.33-.17-.41-.41-.78-.72-1.09-.98-.95-2.48-1.26-3.7-.74-.44.17-.78.44-1.11.74-.3.3-.54.68-.72,1.09-.17.45-.28.89-.28,1.33,0,.2.03.44.07.65.04.24.11.44.2.65ZM152.7,187.09c.53.29,1.1.44,1.67.44,1.18,0,2.33-.62,2.96-1.72l23.54-41.75c.91-1.63.34-3.7-1.29-4.63-1.63-.91-3.7-.34-4.63,1.29l-23.54,41.75c-.93,1.64-.35,3.71,1.29,4.63ZM216.37-31.2c.53.29,1.1.44,1.67.44,1.18,0,2.33-.62,2.96-1.72l23.54-41.75c.91-1.63.35-3.7-1.29-4.63-1.63-.92-3.7-.34-4.63,1.29l-23.55,41.75c-.91,1.63-.33,3.7,1.3,4.63ZM217.85,15.49c-1.41,1.25-1.52,3.39-.28,4.79l31.91,35.77c.66.76,1.61,1.14,2.53,1.14.81,0,1.62-.28,2.26-.86,1.41-1.25,1.53-3.4.28-4.79l-31.91-35.77c-1.23-1.41-3.38-1.54-4.79-.28ZM141.48-69.19c.18,0,.36-.01.54-.04l47.32-7.61c1.86-.29,3.12-2.04,2.81-3.89-.29-1.86-2.04-3.13-3.89-2.81l-47.32,7.61c-1.86.29-3.12,2.04-2.81,3.89.27,1.66,1.7,2.85,3.34,2.85ZM52.53,12.4c.58,1.22,1.8,1.95,3.08,1.95.49,0,.98-.11,1.45-.32,1.7-.8,2.43-2.83,1.62-4.52l-20.45-43.36c-.8-1.7-2.81-2.41-4.52-1.62-1.7.8-2.43,2.83-1.62,4.52L52.53,12.4ZM68.49,147.7c.6.43,1.29.64,1.96.64,1.06,0,2.11-.49,2.77-1.43,1.09-1.53.73-3.65-.8-4.73l-39.04-27.81c-1.52-1.09-3.65-.73-4.73.8-1.09,1.53-.73,3.65.79,4.73l39.04,27.81ZM165.94,67.82c1.6,0,3.04-1.14,3.34-2.79l8.69-47.13c.34-1.84-.88-3.61-2.72-3.95-1.84-.35-3.62.88-3.95,2.72l-8.7,47.15c-.34,1.84.88,3.61,2.72,3.95.21.04.42.05.62.05h0ZM101.95,173.34c-1.3-1.35-3.45-1.41-4.8-.11-1.35,1.3-1.41,3.45-.11,4.8l33.12,34.64c.66.7,1.57,1.05,2.45,1.05s1.68-.32,2.35-.94c1.35-1.3,1.4-3.45.11-4.8l-33.12-34.64ZM53.59-68.63l45.49,15.09c.36.12.72.17,1.07.17,1.42,0,2.74-.9,3.22-2.33.58-1.78-.37-3.7-2.15-4.3l-45.5-15.08c-1.79-.6-3.7.37-4.3,2.15-.58,1.78.38,3.7,2.16,4.3ZM-39.45,142.73c-1.86.25-3.16,1.96-2.92,3.82.23,1.71,1.68,2.94,3.36,2.94.14,0,.3-.01.45-.03l47.51-6.39c1.86-.25,3.16-1.96,2.92-3.82-.25-1.86-1.99-3.16-3.82-2.92l-47.49,6.39ZM232.21,98.28l-4.93,47.68c-.19,1.87,1.17,3.53,3.02,3.73.12.01.24.01.36.01,1.72,0,3.2-1.3,3.37-3.05l4.93-47.68c.19-1.87-1.17-3.53-3.02-3.73-1.88-.21-3.54,1.17-3.73,3.04ZM-22.52,98.59c1.72,0,3.2-1.3,3.37-3.05l4.93-47.68c.19-1.87-1.17-3.53-3.02-3.73-1.88-.22-3.53,1.17-3.73,3.02l-4.92,47.69c-.18,1.87,1.17,3.53,3.02,3.73.12.01.24.01.35.01h0ZM156.79,89.74c-.85-1.67-2.89-2.35-4.56-1.48l-42.74,21.7c-1.67.85-2.33,2.89-1.49,4.56.6,1.18,1.79,1.86,3.02,1.86.52,0,1.03-.12,1.54-.37l42.75-21.7c1.67-.85,2.33-2.89,1.48-4.56h0ZM201.06,197.16l47.66,4.95c.12.01.24.01.36.01,1.72,0,3.2-1.3,3.37-3.05.2-1.87-1.17-3.53-3.02-3.73l-47.66-4.95c-1.88-.22-3.53,1.15-3.73,3.02-.2,1.88,1.17,3.54,3.02,3.74ZM62.16,45.98c-1.35,1.29-1.41,3.45-.12,4.8l33.05,34.72c.66.7,1.57,1.06,2.45,1.06s1.68-.3,2.33-.94c1.35-1.29,1.41-3.45.12-4.8l-33.04-34.72c-1.29-1.36-3.45-1.42-4.8-.12ZM3.77,10.81c.12.01.24.01.36.01,1.72,0,3.2-1.3,3.37-3.05.2-1.87-1.17-3.53-3.02-3.73L-43.21-.9c-1.9-.2-3.53,1.17-3.73,3.02-.2,1.87,1.17,3.53,3.02,3.73L3.77,10.81ZM119.41-2.85c.72,0,1.43-.22,2.04-.69l38.26-28.86c1.5-1.13,1.79-3.26.66-4.75-1.13-1.5-3.26-1.8-4.75-.66l-38.26,28.86c-1.5,1.13-1.79,3.26-.66,4.75.66.89,1.68,1.35,2.71,1.35ZM-5.89,219.81c.66.89,1.68,1.35,2.72,1.35.72,0,1.43-.22,2.04-.69l38.26-28.87c1.5-1.13,1.79-3.26.66-4.75-1.13-1.5-3.25-1.79-4.76-.66l-38.26,28.87c-1.5,1.13-1.79,3.25-.66,4.75ZM-42.97-48.29c-1.13-1.5-.84-3.62.66-4.75L-4.04-81.89c1.5-1.13,3.62-.84,4.75.66,1.13,1.5.83,3.62-.66,4.75l-38.26,28.86c-.61.46-1.33.69-2.04.69-1.02,0-2.04-.46-2.71-1.35Z"/>
</svg>