<?xml version="1.0" encoding="UTF-8"?>
<svg id="Layer_1" xmlns="http://www.w3.org/2000/svg" version="1.1" viewBox="0 0 109 104">
  <!-- Generator: Adobe Illustrator 29.0.1, SVG Export Plug-In . SVG Version: 2.1.0 Build 192)  -->
  <defs>
    <style>
      .st0 {
        fill: #024959;
      }
    </style>
  </defs>
  <path class="st0" d="M95.71,74.05h-36.93v-4.19h36.93v4.19ZM88.78,96.15c-.19,1.1-1.15,1.9-2.26,1.9h-18.43c-1.11,0-2.07-.8-2.26-1.9l-3.53-19.8h30.07l-3.59,19.8ZM83.94,44.24c4.1-5.24,13.3-5.88,16.62-5.94-1.19,10.48-4.1,16.98-8.44,18.83-3.27,1.4-6.74-.11-8.54-1.15,1.61-3.04,3.93-5.64,6.77-7.59.52-.35.67-1.05.34-1.58-.34-.53-1.04-.69-1.58-.36-2.81,1.89-5.16,4.38-6.88,7.29-.77-3.88-.2-7.08,1.7-9.51ZM65.77,58.5c-3-.63-5.7-4.15-7.84-10.23,2.8-.49,9.63-1.14,12.78,1.71,1.38,1.35,1.99,3.31,1.62,5.2-2.81-2.28-5.19-3.88-5.3-3.96-.53-.35-1.24-.21-1.59.32-.35.53-.21,1.24.32,1.6.03.02,2.44,1.64,5.22,3.9-1.45,1.2-3.34,1.73-5.2,1.46M95.71,67.57h-16.49c.74-3.29,1.85-6.49,3.28-9.54,2.36,1.52,7.2,2.85,10.5,1.23,5.41-2.3,8.77-9.7,9.97-21.98.03-.31-.07-.63-.28-.86-.34-.99-14.91-.83-20.57,6.41-2.71,3.46-3.25,8.03-1.61,13.58.03.08.07.16.11.23-.74,1.49-1.39,3.02-1.95,4.58-1.33-1.54-2.77-2.98-4.31-4.31.03-.06.05-.12.06-.18,1.04-5.39-1.28-8.06-3.4-9.36-5.11-3.12-14.62-1.38-15.3-.84-.38.3-.53.8-.38,1.26,3.38,10.86,9.67,16.69,17.43,10.77,1.88,1.57,3.58,3.35,5.06,5.3-.43,1.46-.75,2.73-.97,3.71h-18.08c-1.27,0-2.3,1.03-2.3,2.3v4.19c0,1.27,1.03,2.3,2.3,2.3h1.17l3.6,20.2c.39,2.19,2.3,3.79,4.52,3.79h18.43c2.23,0,4.13-1.59,4.52-3.79l3.66-20.21h1.01c1.27,0,2.3-1.03,2.3-2.3v-4.19c0-1.27-1.03-2.3-2.3-2.3"/>
</svg>