<?xml version="1.0" encoding="UTF-8"?>
<svg id="Layer_1" xmlns="http://www.w3.org/2000/svg" version="1.1" viewBox="0 0 109 104">
  <!-- Generator: Adobe Illustrator 29.0.1, SVG Export Plug-In . SVG Version: 2.1.0 Build 192)  -->
  <defs>
    <style>
      .st0 {
        fill: #037e8c;
      }
    </style>
  </defs>
  <path class="st0" d="M135.8,837.29h-48.33c-.53,0-.96.43-.96.96s.43.96.96.96h48.33v1.38c0,4.76-3.87,8.62-8.63,8.63h-44.91c-4.76,0-8.62-3.87-8.63-8.63v-1.38h8.56c.53,0,.96-.43.96-.96s-.43-.96-.96-.96h-8.56v-7.67h62.16v7.67ZM104.96,856.88l-9.09-5.74h18.18l-9.09,5.74ZM110.17,802.33c6.74.16,13.16,2.93,17.91,7.71.05.05.09.1.14.14l-3.04,1.97c-.44.29-.57.88-.28,1.33.29.44.88.57,1.33.28l3.26-2.11c4.12,5.6,6.09,10.62,6.3,16.06h-31.08l17.84-11.56c.29-.18.46-.51.44-.86-.02-.34-.22-.65-.52-.81-.31-.16-.67-.13-.96.06l-18.39,11.92,7.06-24.13ZM116.18,865.67c2.02-1.08,4.51-.68,6.09.97,1.58,1.66,1.86,4.17.69,6.13s-3.52,2.9-5.73,2.29c-2.21-.61-3.74-2.62-3.74-4.91,0-1.88,1.03-3.6,2.68-4.49M96.41,870.16c0,2.81-2.28,5.09-5.09,5.09s-5.09-2.28-5.09-5.09,2.28-5.09,5.09-5.09c.84,0,1.67.2,2.41.6,1.65.89,2.69,2.61,2.69,4.49M130.47,809.77s-.03-.04-.05-.06c-.32-.35-.65-.7-.98-1.03-5.29-5.32-12.49-8.3-19.99-8.28-.43,0-.8.28-.92.69l-7.79,26.62h-24.9v-6.78c0-3.88-3.15-7.03-7.03-7.03h-2.18c-.53,0-.96.43-.96.96s.43.96.96.96h2.18c2.82,0,5.11,2.29,5.11,5.11v6.78h-1.25c-.53,0-.96.43-.96.96v11.92c0,5.82,4.72,10.54,10.55,10.55h10.01l10.88,6.88-9.04,5.72c-3.36-1.46-7.28-.09-9,3.15-1.71,3.24-.64,7.26,2.46,9.21,3.1,1.96,7.19,1.19,9.37-1.75,2.19-2.94,1.73-7.07-1.04-9.48l9.04-5.71,9.04,5.72c-2.77,2.4-3.23,6.54-1.04,9.49,2.19,2.95,6.28,3.71,9.38,1.76,3.1-1.96,4.18-5.98,2.46-9.22-1.72-3.24-5.64-4.62-9.01-3.15l-9.05-5.72,10.88-6.88h9.53c5.82,0,10.54-4.73,10.55-10.55v-11.92c0-6.49-2.23-12.32-7.24-18.89M97.26,831.82h-14.62c-.53,0-.96.43-.96.96s.43.96.96.96h14.62c.53,0,.96-.43.96-.96s-.43-.96-.96-.96M79.73,831.82h-.74c-.53,0-.96.43-.96.96s.43.96.96.96h.74c.53,0,.96-.43.96-.96s-.43-.96-.96-.96M118.59,868.99c.64,0,1.17.52,1.17,1.17,0,.64-.52,1.17-1.17,1.17-.64,0-1.17-.52-1.17-1.17,0-.64.52-1.17,1.17-1.17M118.59,873.24c1.7,0,3.08-1.38,3.08-3.09s-1.38-3.08-3.08-3.08-3.09,1.38-3.09,3.08c0,1.7,1.38,3.08,3.09,3.09M91.32,871.32c-.64,0-1.17-.52-1.17-1.17,0-.64.52-1.17,1.17-1.17s1.17.52,1.17,1.17-.52,1.17-1.17,1.17M91.32,867.07c-1.7,0-3.08,1.38-3.08,3.09,0,1.7,1.38,3.08,3.09,3.08,1.7,0,3.08-1.38,3.08-3.09,0-1.7-1.38-3.08-3.09-3.08"/>
  <path class="st0" d="M84.05,51.47h-48.33c-.53,0-.96.43-.96.96s.43.96.96.96h48.33v1.38c0,4.76-3.87,8.62-8.63,8.63H30.52c-4.76,0-8.62-3.87-8.63-8.63v-1.38h8.56c.53,0,.96-.43.96-.96s-.43-.96-.96-.96h-8.56v-7.67h62.16v7.67ZM53.21,71.06l-9.09-5.74h18.18l-9.09,5.74ZM58.42,16.51c6.74.16,13.16,2.93,17.91,7.71.05.05.09.1.14.14l-3.04,1.97c-.44.29-.57.88-.28,1.33.29.44.88.57,1.33.28l3.26-2.11c4.12,5.6,6.09,10.62,6.3,16.06h-31.08l17.84-11.56c.29-.18.46-.51.44-.86-.02-.34-.22-.65-.52-.81-.31-.16-.67-.13-.96.06l-18.39,11.92,7.06-24.13ZM64.44,79.85c2.02-1.08,4.51-.68,6.09.97,1.58,1.66,1.86,4.17.69,6.13s-3.52,2.9-5.73,2.29c-2.21-.61-3.74-2.62-3.74-4.91,0-1.88,1.03-3.6,2.68-4.49M44.66,84.33c0,2.81-2.28,5.09-5.09,5.09s-5.09-2.28-5.09-5.09,2.28-5.09,5.09-5.09c.84,0,1.67.2,2.41.6,1.65.89,2.69,2.61,2.69,4.49M78.72,23.95s-.03-.04-.05-.06c-.32-.35-.65-.7-.98-1.03-5.29-5.32-12.49-8.3-19.99-8.28-.43,0-.8.28-.92.69l-7.79,26.62h-24.9v-6.78c0-3.88-3.15-7.03-7.03-7.03h-2.18c-.53,0-.96.43-.96.96s.43.96.96.96h2.18c2.82,0,5.11,2.29,5.11,5.11v6.78h-1.25c-.53,0-.96.43-.96.96v11.92c0,5.82,4.72,10.54,10.55,10.55h10.01l10.88,6.88-9.04,5.72c-3.36-1.46-7.28-.09-9,3.15-1.71,3.24-.64,7.26,2.46,9.21,3.1,1.96,7.19,1.19,9.37-1.75,2.19-2.94,1.73-7.07-1.04-9.48l9.04-5.71,9.04,5.72c-2.77,2.4-3.23,6.54-1.04,9.49,2.19,2.95,6.28,3.71,9.38,1.76,3.1-1.96,4.18-5.98,2.46-9.22-1.72-3.24-5.64-4.62-9.01-3.15l-9.05-5.72,10.88-6.88h9.53c5.82,0,10.54-4.73,10.55-10.55v-11.92c0-6.49-2.23-12.32-7.24-18.89M45.51,46h-14.62c-.53,0-.96.43-.96.96s.43.96.96.96h14.62c.53,0,.96-.43.96-.96s-.43-.96-.96-.96M27.99,46h-.74c-.53,0-.96.43-.96.96s.43.96.96.96h.74c.53,0,.96-.43.96-.96s-.43-.96-.96-.96M66.84,83.17c.64,0,1.17.52,1.17,1.17,0,.64-.52,1.17-1.17,1.17-.64,0-1.17-.52-1.17-1.17,0-.64.52-1.17,1.17-1.17M66.84,87.42c1.7,0,3.08-1.38,3.08-3.09s-1.38-3.08-3.08-3.08-3.09,1.38-3.09,3.08c0,1.7,1.38,3.08,3.09,3.09M39.57,85.5c-.64,0-1.17-.52-1.17-1.17,0-.64.52-1.17,1.17-1.17s1.17.52,1.17,1.17-.52,1.17-1.17,1.17M39.57,81.25c-1.7,0-3.08,1.38-3.08,3.09,0,1.7,1.38,3.08,3.09,3.08,1.7,0,3.08-1.38,3.08-3.09,0-1.7-1.38-3.08-3.09-3.08"/>
</svg>