<?xml version="1.0" encoding="UTF-8"?>
<svg id="Layer_1" xmlns="http://www.w3.org/2000/svg" version="1.1" viewBox="0 0 109 104">
  <!-- Generator: Adobe Illustrator 29.0.1, SVG Export Plug-In . SVG Version: 2.1.0 Build 192)  -->
  <defs>
    <style>
      .st0 {
        fill: #037e8c;
      }
    </style>
  </defs>
  <path class="st0" d="M135.8,837.29h-48.33c-.53,0-.96.43-.96.96s.43.96.96.96h48.33v1.38c0,4.76-3.87,8.62-8.63,8.63h-44.91c-4.76,0-8.62-3.87-8.63-8.63v-1.38h8.56c.53,0,.96-.43.96-.96s-.43-.96-.96-.96h-8.56v-7.67h62.16v7.67ZM104.96,856.88l-9.09-5.74h18.18l-9.09,5.74ZM110.17,802.33c6.74.16,13.16,2.93,17.91,7.71.05.05.09.1.14.14l-3.04,1.97c-.44.29-.57.88-.28,1.33.29.44.88.57,1.33.28l3.26-2.11c4.12,5.6,6.09,10.62,6.3,16.06h-31.08l17.84-11.56c.29-.18.46-.51.44-.86-.02-.34-.22-.65-.52-.81-.31-.16-.67-.13-.96.06l-18.39,11.92,7.06-24.13ZM116.18,865.67c2.02-1.08,4.51-.68,6.09.97,1.58,1.66,1.86,4.17.69,6.13s-3.52,2.9-5.73,2.29c-2.21-.61-3.74-2.62-3.74-4.91,0-1.88,1.03-3.6,2.68-4.49M96.41,870.16c0,2.81-2.28,5.09-5.09,5.09s-5.09-2.28-5.09-5.09,2.28-5.09,5.09-5.09c.84,0,1.67.2,2.41.6,1.65.89,2.69,2.61,2.69,4.49M130.47,809.77s-.03-.04-.05-.06c-.32-.35-.65-.7-.98-1.03-5.29-5.32-12.49-8.3-19.99-8.28-.43,0-.8.28-.92.69l-7.79,26.62h-24.9v-6.78c0-3.88-3.15-7.03-7.03-7.03h-2.18c-.53,0-.96.43-.96.96s.43.96.96.96h2.18c2.82,0,5.11,2.29,5.11,5.11v6.78h-1.25c-.53,0-.96.43-.96.96v11.92c0,5.82,4.72,10.54,10.55,10.55h10.01l10.88,6.88-9.04,5.72c-3.36-1.46-7.28-.09-9,3.15-1.71,3.24-.64,7.26,2.46,9.21,3.1,1.96,7.19,1.19,9.37-1.75,2.19-2.94,1.73-7.07-1.04-9.48l9.04-5.71,9.04,5.72c-2.77,2.4-3.23,6.54-1.04,9.49,2.19,2.95,6.28,3.71,9.38,1.76,3.1-1.96,4.18-5.98,2.46-9.22-1.72-3.24-5.64-4.62-9.01-3.15l-9.05-5.72,10.88-6.88h9.53c5.82,0,10.54-4.73,10.55-10.55v-11.92c0-6.49-2.23-12.32-7.24-18.89M97.26,831.82h-14.62c-.53,0-.96.43-.96.96s.43.96.96.96h14.62c.53,0,.96-.43.96-.96s-.43-.96-.96-.96M79.73,831.82h-.74c-.53,0-.96.43-.96.96s.43.96.96.96h.74c.53,0,.96-.43.96-.96s-.43-.96-.96-.96M118.59,868.99c.64,0,1.17.52,1.17,1.17,0,.64-.52,1.17-1.17,1.17-.64,0-1.17-.52-1.17-1.17,0-.64.52-1.17,1.17-1.17M118.59,873.24c1.7,0,3.08-1.38,3.08-3.09s-1.38-3.08-3.08-3.08-3.09,1.38-3.09,3.08c0,1.7,1.38,3.08,3.09,3.09M91.32,871.32c-.64,0-1.17-.52-1.17-1.17,0-.64.52-1.17,1.17-1.17s1.17.52,1.17,1.17-.52,1.17-1.17,1.17M91.32,867.07c-1.7,0-3.08,1.38-3.08,3.09,0,1.7,1.38,3.08,3.09,3.08,1.7,0,3.08-1.38,3.08-3.09,0-1.7-1.38-3.08-3.09-3.08"/>
  <path class="st0" d="M58.63,47.17c-.67.7.34,1.71,1.04,1.04.67-.7-.34-1.71-1.04-1.04M71.42,47.75c-1.43-6.02-6.29-10.89-12.32-12.32,7.46-2.19,14.5,4.86,12.32,12.32M68.9,52.03c-.19.19-.39.37-.6.54-1.15-6.37-7.54-12.72-14.05-13.99.72-.86,1.61-1.61,2.56-2.16,7.14.79,12.85,6.49,13.63,13.63-.43.71-.95,1.38-1.54,1.97M62.44,54.93c.17-1.55-.05-3.1-.63-4.54-.14-.36-.54-.53-.9-.39-.35.14-.53.55-.39.9.51,1.28.68,2.64.53,4.01-4.67-.25-8.86-4.43-9.1-9.1,1.4-.2,2.77.1,4.1.51.28,0,.55-.18.65-.46.14-.35-.05-.76-.4-.9-1.39-.52-2.89-.71-4.37-.56.09-1.58.56-3.16,1.43-4.58,6.39.95,12.92,7.42,13.68,13.66-1.42.89-3,1.37-4.6,1.46M61.86,33.65c-10.02-.05-15.13,12.29-8.02,19.36,4.34,4.42,11.73,4.39,16.04,0,7.13-7.09,2.02-19.38-8.01-19.36M78.3,49.41c-.59,2.2-2.43,3.82-4.68,4.11-.87.11-1.63.52-2.21,1.14-.56.56-.91,1.28-1.01,2.1-.61,4.9-7.05,6.63-10.02,2.68-1.03-1.34-2.87-1.84-4.42-1.19-4.54,1.92-9.26-2.78-7.34-7.34.65-1.56.15-3.39-1.19-4.42-3.94-2.98-2.22-9.42,2.68-10.03,1.67-.21,3.01-1.56,3.24-3.24.61-4.9,7.05-6.63,10.02-2.68,1.03,1.34,2.86,1.84,4.42,1.19,4.54-1.92,9.26,2.78,7.34,7.34-.32.76-.37,1.56-.17,2.32.19.82.65,1.56,1.35,2.1,1.8,1.39,2.58,3.71,1.99,5.91M40.15,67.96c-.42.42-.63.98-.62,1.58.06,1.28-1.08,2.42-2.35,2.35-1.9-.02-2.91-2.39-1.65-3.8.46-.51,1.1-.8,1.79-.77.6.01,1.16-.2,1.58-.62l9.35-9.35c.35.47.8.9,1.25,1.25l-9.35,9.35ZM34.27,82.08c-5.97,2.82-12.11-3.44-9.32-9.32l9.32,9.32ZM38.37,82.9c-3.75,3.91-10.49,3.91-14.24,0-7.75-7.91.97-20.66,11.11-16.38-.51.33-.95.81-1.24,1.34-8.34-2.85-14.9,7.44-8.68,13.83,1.58,1.58,3.68,2.46,5.92,2.46,4.58.1,8.6-4.01,8.38-8.58-.01-.38-.33-.68-.71-.68-.38.01-.68.33-.68.71.06,2.24-.97,4.38-2.75,5.73l-1.43-1.43c2.76-3.59-.57-8.82-5.01-7.82-.38.08-.61.46-.53.82.07.38.45.62.82.53,3.1-.71,5.51,2.86,3.72,5.46l-7.37-7.37c1.82-2.42,5.07-3.38,7.89-2.35-.39,3.91,4.68,5.68,6.8,2.34,1.76,3.8,1.01,8.39-2,11.39M77.15,42.4c-.85-.66-1.15-1.8-.75-2.79,2.39-5.68-3.48-11.56-9.16-9.16-.53.23-1.07.23-1.59.06-.47-.13-.87-.4-1.19-.81-1.73-2.25-4.62-3.23-7.37-2.49-2.75.73-4.76,3.02-5.14,5.85-.06.51-.28.96-.62,1.3l-.11.11c-.34.34-.78.56-1.3.62-2.81.38-5.11,2.39-5.85,5.14-.73,2.75.24,5.63,2.49,7.38.4.32.68.72.81,1.19l.05.16c.13.47.09.96-.11,1.43-.78,1.9-.68,3.98.18,5.75l-9.58,9.58c-.19.21-.51.21-.77.21-11.63-6.72-23.31,8.29-13.99,17.95,4.26,4.44,11.95,4.44,16.21,0,3.76-3.66,4.44-9.88,1.57-14.26-.01-.25.04-.51.22-.67l9.58-9.58c1.77.86,3.86.96,5.75.18.48-.19.98-.23,1.43-.11l.16.05c.47.13.87.4,1.19.81,1.35,1.75,3.4,2.73,5.54,2.73,3.46.04,6.54-2.65,6.96-6.09.06-.51.28-.96.62-1.3.37-.4.85-.67,1.42-.75,6.11-.75,8.28-8.78,3.35-12.49"/>
</svg>