<?xml version="1.0" encoding="UTF-8"?>
<svg id="Layer_1" xmlns="http://www.w3.org/2000/svg" version="1.1" viewBox="0 0 109 104">
  <!-- Generator: Adobe Illustrator 29.0.1, SVG Export Plug-In . SVG Version: 2.1.0 Build 192)  -->
  <defs>
    <style>
      .st0 {
        fill: #024959;
        fill-rule: evenodd;
      }
    </style>
  </defs>
  <path class="st0" d="M37.82,58.1c-.08,0-.18.02-.3.14-.59.61-1.21,2.99-.86,10.86.02.39-.35,1.84-.54,2.27-.03.05-.05.11-.08.18-.23.5-.94,2.02-.63,2.5.09.15.39.17.56.17h38.82c2.7,0,7.48-.8,9.17-2.51.6-.61.9-1.79.72-2.81-.1-.55-.38-1.29-1.15-1.65-1.59-.75-4.91-1.38-7.34-1.83-.68-.13-1.32-.25-1.85-.36-4.17-.86-13.18-6.89-14.94-8.08-.74-.5-1.46-.75-2.21-.75-2.07,0-4.01,1.93-5.89,3.8-1.79,1.78-3.48,3.47-5.32,3.47-.14,0-.27-.01-.41-.03-1.67-.03-3.29-1.62-4.85-3.16-1.05-1.03-2.24-2.2-2.9-2.2M74.79,75.43h-38.82c-.93,0-1.38-.4-1.59-.73-.61-.96-.03-2.4.56-3.66.03-.06.06-.12.08-.17.14-.31.42-1.48.43-1.73-.39-8.83.39-10.89,1.2-11.74.32-.34.73-.52,1.17-.52,1.15,0,2.36,1.18,3.75,2.54,1.34,1.32,2.86,2.81,4.05,2.81.03,0,.06,0,.1,0,.09.01.18.02.27.02,1.34,0,2.86-1.51,4.47-3.11,1.96-1.95,4.17-4.15,6.74-4.15.98,0,1.95.32,2.89.96,1.06.72,10.48,7.06,14.51,7.9.51.11,1.15.23,1.83.35,2.63.5,5.91,1.12,7.63,1.93.97.46,1.62,1.36,1.83,2.54.25,1.4-.18,3-1.05,3.88-2.06,2.09-7.25,2.87-10.03,2.87"/>
  <path class="st0" d="M72.75,72.06c-3.09,0-6.6-.38-10.13-1.52-8.95-2.9-21.61-.84-26.64.18-.33.07-.65-.15-.72-.48-.07-.33.15-.65.47-.72,5.12-1.04,18.04-3.14,27.26-.15,10.98,3.56,22.01-.52,22.12-.56.31-.12.66.04.78.35.12.31-.04.66-.35.78-.12.04-2.91,1.09-7.15,1.69-1.59.23-3.52.41-5.65.41"/>
  <path class="st0" d="M66.03,67.59c-6.54,0-11.87-4.2-11.87-9.35,0-.77.12-1.54.35-2.28.1-.32.44-.5.76-.4.32.1.5.44.4.76-.2.62-.3,1.27-.3,1.92,0,4.49,4.78,8.14,10.65,8.14,2.91,0,5.64-.89,7.66-2.49.26-.21.65-.16.85.1.21.26.16.64-.1.85-2.24,1.78-5.23,2.76-8.42,2.76"/>
  <path class="st0" d="M59.63,59.24c-.14,0-.28-.05-.39-.14-.26-.22-.29-.6-.08-.85l1.2-1.44c.21-.26.6-.29.86-.08.26.21.29.6.08.86l-1.2,1.44c-.12.14-.29.22-.47.22"/>
  <path class="st0" d="M62.09,60.95c-.14,0-.28-.05-.39-.14-.26-.21-.29-.6-.08-.86l1.27-1.52c.22-.26.6-.29.86-.08.26.21.29.6.08.86l-1.27,1.52c-.12.14-.29.22-.47.22"/>
  <path class="st0" d="M64.55,62.67c-.14,0-.27-.05-.39-.14-.26-.22-.29-.6-.08-.85l1.38-1.66c.21-.26.6-.29.86-.08.26.21.29.6.08.86l-1.38,1.66c-.12.14-.29.22-.47.22"/>
  <path class="st0" d="M67.01,64.38c-.14,0-.28-.05-.39-.14-.26-.22-.29-.6-.08-.85l1.55-1.87c.21-.26.6-.29.85-.08.26.22.29.6.08.85l-1.55,1.87c-.12.15-.29.22-.47.22"/>
  <path class="st0" d="M44.53,26.59c-.19,0-.75.18-1.76,1.9-.96,1.62-2.08,4.18-3.42,7.83-.14.37-1.03,1.57-1.38,1.88-.04.04-.09.08-.14.13-.41.37-1.65,1.5-1.55,2.06.03.17.3.31.46.38l35.81,15c1.81.76,4.85,1.57,7.23,1.57.9,0,1.64-.12,2.19-.35.79-.33,1.53-1.3,1.75-2.32.12-.55.15-1.33-.43-1.97-1.17-1.3-4-3.17-6.06-4.53-.58-.38-1.12-.74-1.57-1.04-3.51-2.41-9.5-11.44-10.66-13.23-.81-1.24-1.85-1.83-3.28-1.83-1.64,0-3.53.77-5.36,1.51-1.76.72-3.43,1.4-4.87,1.4-.66,0-1.25-.15-1.74-.44-1.53-.67-2.4-2.76-3.25-4.79-.6-1.41-1.33-3.17-1.96-3.17M79.78,58.55c-2.55,0-5.78-.86-7.7-1.67l-35.81-15c-.85-.36-1.12-.9-1.18-1.29-.19-1.12.89-2.22,1.93-3.16.05-.04.1-.09.14-.13.25-.23.96-1.2,1.07-1.42,3.4-9.24,5.04-10.51,6.32-10.51,1.43,0,2.19,1.82,3.08,3.92.73,1.73,1.55,3.7,2.65,4.16.03.01.06.03.08.04.31.19.68.29,1.14.29,1.21,0,2.77-.64,4.42-1.31,1.94-.79,3.94-1.6,5.82-1.6s3.27.8,4.3,2.38c.7,1.07,6.94,10.56,10.33,12.89.43.3.98.66,1.55,1.03,2.23,1.47,5.02,3.31,6.29,4.73.72.8.97,1.88.71,3.05-.31,1.39-1.33,2.69-2.47,3.17-.7.29-1.59.44-2.66.44"/>
  <path class="st0" d="M84.14,56h-.02c-.13,0-3.11-.12-7.25-1.2-3.82-1-9.38-3.04-14.12-7.12-7.13-6.13-19.61-9.12-24.64-10.12-.33-.07-.54-.39-.48-.71.06-.33.38-.54.71-.48,5.13,1.02,17.85,4.07,25.2,10.39,4.56,3.92,9.92,5.89,13.6,6.86,4.01,1.05,6.99,1.17,7.01,1.17.34.01.6.29.59.63-.01.33-.28.59-.61.59"/>
  <path class="st0" d="M72.57,47.42c-1.84,0-3.73-.39-5.55-1.15-6.04-2.53-9.32-8.45-7.33-13.21.3-.71.7-1.38,1.21-1.97.22-.26.6-.29.86-.07.26.22.29.6.07.85-.42.5-.76,1.05-1.01,1.65-1.73,4.14,1.26,9.35,6.68,11.62,2.69,1.13,5.54,1.36,8.03.66.32-.09.66.1.75.42.09.32-.1.66-.42.75-1.05.29-2.15.44-3.28.44"/>
  <path class="st0" d="M64.58,36.14c-.22,0-.43-.12-.54-.33-.15-.3-.04-.66.26-.82l1.66-.86c.3-.16.67-.04.82.26.15.3.04.66-.26.82l-1.66.86c-.09.05-.19.07-.28.07"/>
  <path class="st0" d="M66.19,38.67c-.22,0-.43-.12-.54-.33-.15-.3-.04-.66.26-.82l1.76-.91c.3-.15.67-.04.82.26.15.3.04.66-.26.82l-1.75.91c-.09.05-.19.07-.28.07"/>
  <path class="st0" d="M67.79,41.2c-.22,0-.43-.12-.54-.33-.15-.3-.04-.66.26-.82l1.91-.99c.3-.16.66-.04.82.26.15.3.04.66-.26.82l-1.91,1c-.09.05-.19.07-.28.07"/>
  <path class="st0" d="M69.4,43.74c-.22,0-.43-.12-.54-.33-.16-.3-.04-.66.26-.82l2.15-1.12c.3-.15.66-.04.82.26.16.3.04.66-.26.82l-2.15,1.12c-.09.05-.19.07-.28.07"/>
</svg>