<?xml version="1.0" encoding="UTF-8"?>
<svg id="Layer_1" xmlns="http://www.w3.org/2000/svg" version="1.1" viewBox="0 0 109 104">
  <!-- Generator: Adobe Illustrator 29.0.1, SVG Export Plug-In . SVG Version: 2.1.0 Build 192)  -->
  <defs>
    <style>
      .st0 {
        fill: #f24c27;
        fill-rule: evenodd;
      }
    </style>
  </defs>
  <path class="st0" d="M17.15,78.76h10.76v-27.08c0-4.58-3.72-8.3-8.24-8.3s-8.3,3.72-8.3,8.3c0,3.32,2,6.35,5.1,7.61.4.17.69.63.69,1.09v18.38ZM29.06,81.05h-13.05c-.63,0-1.15-.52-1.15-1.15v-18.78c-3.55-1.83-5.78-5.44-5.78-9.45,0-5.84,4.75-10.59,10.59-10.59s10.53,4.75,10.53,10.59v28.22c0,.63-.52,1.15-1.15,1.15"/>
  <path class="st0" d="M87.97,78.76h10.71v-18.38c0-.46.29-.92.74-1.09,3.09-1.26,5.1-4.29,5.1-7.61,0-4.58-3.72-8.3-8.3-8.3s-8.24,3.72-8.24,8.3v27.08ZM99.82,81.05h-13c-.63,0-1.15-.52-1.15-1.15v-28.22c0-5.84,4.7-10.59,10.53-10.59s10.59,4.75,10.59,10.59c0,4.01-2.29,7.61-5.84,9.45v18.78c0,.63-.52,1.15-1.15,1.15"/>
  <path class="st0" d="M30.21,75.21h55.48v-13.68H30.21v13.68ZM86.83,77.5H29.06c-.63,0-1.15-.52-1.15-1.15v-15.97c0-.63.52-1.15,1.15-1.15h57.77c.63,0,1.15.52,1.15,1.15v15.97c0,.63-.52,1.15-1.15,1.15"/>
  <path class="st0" d="M30.21,59.24h26.56v-2.12c0-1.2-.92-2.12-2.12-2.12h-22.33c-1.15,0-2.12.92-2.12,2.12v2.12ZM57.92,61.53h-28.85c-.63,0-1.15-.52-1.15-1.15v-3.26c0-2.46,2-4.41,4.41-4.41h22.33c2.46,0,4.41,1.95,4.41,4.41v3.26c0,.63-.52,1.15-1.15,1.15"/>
  <path class="st0" d="M59.06,59.24h26.62v-2.12c0-1.2-.97-2.12-2.12-2.12h-22.39c-1.15,0-2.12.92-2.12,2.12v2.12ZM86.83,61.53h-28.91c-.63,0-1.15-.52-1.15-1.15v-3.26c0-2.46,2-4.41,4.41-4.41h22.39c2.4,0,4.41,1.95,4.41,4.41v3.26c0,.63-.52,1.15-1.15,1.15"/>
  <path class="st0" d="M30.38,59.24h55.3v-7.56c0-1.49.29-2.92.86-4.29l.8-11.45c.06-.92-.23-1.83-.92-2.58-.8-.8-1.89-1.32-3.03-1.32h-50.9c-1.15,0-2.29.52-3.09,1.37-.63.69-.97,1.6-.92,2.52l.97,11.85c.52,1.26.74,2.58.74,3.89v5.09l.17,2.46ZM86.83,61.53H29.35c-.57,0-1.09-.46-1.15-1.09l-.29-3.49v-5.27c0-1.09-.23-2.18-.63-3.15-.06-.11-.06-.23-.06-.34l-1.03-12.08c-.11-1.55.46-3.03,1.55-4.24,1.2-1.37,2.92-2.12,4.75-2.12h50.9c1.78,0,3.49.74,4.7,2.06,1.09,1.2,1.66,2.69,1.54,4.29l-.8,11.68c0,.11-.06.29-.12.4-.51,1.09-.74,2.29-.74,3.49v8.7c0,.63-.52,1.15-1.15,1.15"/>
  <path class="st0" d="M76.06,39.83h-36.3c-.63,0-1.15-.52-1.15-1.15s.52-1.14,1.15-1.14h36.3c.63,0,1.15.51,1.15,1.14s-.52,1.15-1.15,1.15"/>
  <path class="st0" d="M73.03,46.47h-30.23c-.63,0-1.15-.52-1.15-1.15s.52-1.14,1.15-1.14h30.23c.63,0,1.15.51,1.15,1.14s-.52,1.15-1.15,1.15"/>
</svg>