<?xml version="1.0" encoding="UTF-8"?>
<svg id="Layer_1" xmlns="http://www.w3.org/2000/svg" version="1.1" viewBox="0 0 109 104">
  <!-- Generator: Adobe Illustrator 29.0.1, SVG Export Plug-In . SVG Version: 2.1.0 Build 192)  -->
  <defs>
    <style>
      .st0 {
        fill: #024959;
      }
    </style>
  </defs>
  <path class="st0" d="M90.71,52.25c-.82.37-1.61.8-2.36,1.3-.13-.77-.32-1.52-.59-2.26.66-.4,1.34-.76,2.04-1.08,2.63-1.17,4.33-3.78,4.33-6.67,0-1.79-1.12-3.39-2.81-4-1.69-.61-3.57-.1-4.72,1.28l-.45.54c-.72.86-1.54,1.62-2.45,2.27-.39-.64-.84-1.24-1.33-1.81.77-.54,1.46-1.17,2.07-1.89l.45-.53c1.75-2.1,4.63-2.88,7.2-1.95,2.57.93,4.28,3.37,4.28,6.11,0,3.77-2.22,7.18-5.66,8.71M86.81,49.24l-2.01-3.68c1.15-.78,2.18-1.72,3.07-2.78l.45-.54c.55-.65,1.44-.89,2.24-.6.8.29,1.33,1.05,1.33,1.9,0,2-1.18,3.81-3.01,4.62-.71.32-1.4.68-2.08,1.08h0ZM81.86,64.16c-3.22,2.25-6.96,3.64-10.88,4.05-1.72-2.56-6.16-4.34-11.52-4.34-1.89,0-3.77.23-5.59.72v-4.07c0-3.32-4.2-6-9.92-6.59.17-1.03.5-2.04.98-2.97,3.38-1.41,5.58-4.71,5.59-8.37v-.41c.11-.1.22-.2.34-.29,1.4,3.05,7.03,5.21,14.19,5.21s12.81-2.16,14.2-5.22c1.18.95,2.15,2.12,2.88,3.45l2.9,5.31c2.54,4.66,1.17,10.48-3.17,13.52h0ZM69.45,71.08c-2.26-1.7-5.9-2.73-9.98-2.73s-7.72,1.03-9.98,2.73c-.05-.16-.08-.33-.08-.5,0-2.12,4.14-4.47,10.06-4.47s10.06,2.36,10.06,4.47c0,.17-.03.34-.08.5h0ZM50.89,72.82c2.58-1.58,5.56-2.35,8.58-2.24,3.02-.12,6,.66,8.58,2.24-2.57,1.59-5.56,2.37-8.58,2.24-3.02.14-6.01-.64-8.58-2.24M59.47,85.12c-5.55,0-10.06-4.51-10.06-10.06v-.58c2.21,1.71,5.85,2.81,10.06,2.81s7.86-1.1,10.06-2.81v.58c0,5.55-4.51,10.06-10.06,10.06M31.52,64.99v-.58c2.21,1.71,5.85,2.81,10.06,2.81s7.85-1.1,10.06-2.81v.58c0,.13-.02.26-.02.39-2.74,1.22-4.45,3.08-4.45,5.2v2.77c-1.65,1.11-3.6,1.71-5.59,1.7-5.56,0-10.06-4.51-10.06-10.06M50.16,62.76c-2.57,1.59-5.56,2.37-8.58,2.24-3.02.14-6.01-.64-8.58-2.24,2.58-1.58,5.56-2.35,8.58-2.24,3.02-.12,6,.66,8.58,2.24M41.58,56.05c5.93,0,10.06,2.36,10.06,4.47,0,.17-.03.34-.08.5-2.26-1.71-5.9-2.74-9.98-2.74s-7.73,1.03-9.98,2.74c-.05-.16-.08-.33-.08-.5,0-2.11,4.14-4.47,10.06-4.47M40.8,44.15l-2.01-1.61.91-.91c2.82.66,5.7,1.04,8.59,1.13-.06,2.49-1.47,4.75-3.67,5.91-.97-1.74-2.27-3.27-3.82-4.52M54.52,39.87c2.14-.71,4.35-1.2,6.6-1.46-.13.55-.29,1.1-.47,1.64-.04.11-.06.23-.06.35,0,1.65,2.31,2.24,4.47,2.24s4.47-.59,4.47-2.24c0-.12-.02-.24-.06-.35-.18-.54-.34-1.09-.47-1.64,2.24.26,4.45.75,6.6,1.46.59.2,1.17.45,1.72.75-.35,2.05-5.47,4.25-12.27,4.25s-11.91-2.19-12.27-4.25c.55-.3,1.13-.55,1.72-.75M63.95,33.51v-.94c0-.62.5-1.12,1.12-1.12s1.12.5,1.12,1.12v.94c0,2.23.33,4.46.97,6.6-1.36.39-2.81.39-4.18,0,.64-2.14.97-4.36.97-6.6M89.87,34.8c-2.59,0-5.05,1.15-6.71,3.14l-.45.53c-.56.67-1.23,1.26-1.97,1.73-1.32-1.09-2.82-1.92-4.44-2.46-2.5-.83-5.09-1.38-7.71-1.63-.11-.87-.17-1.74-.18-2.61v-.94c0-1.85-1.5-3.35-3.35-3.35s-3.35,1.5-3.35,3.35v.94c0,.87-.07,1.74-.18,2.61-2.62.26-5.21.8-7.72,1.63-1.77.6-3.4,1.55-4.8,2.8l-.56-.02c-2.98-.08-5.95-.49-8.84-1.21-.38-.09-.79.02-1.06.29l-2.24,2.24c-.22.22-.34.53-.33.85.02.32.17.61.42.81l3,2.4c1.43,1.16,2.61,2.61,3.45,4.25-.56,1.16-.93,2.39-1.12,3.66h-.14c-6.9,0-12.3,2.95-12.3,6.71v4.47c0,4.29,2.23,8.27,5.9,10.5,3.66,2.23,8.22,2.4,12.04.43.46,6.61,6.08,11.66,12.7,11.42s11.86-5.67,11.86-12.3v-4.47c0-.07-.01-.14-.02-.21,4.1-.51,8.01-2.01,11.39-4.38,3.22-2.26,5.2-5.89,5.37-9.82.95-.76,2-1.39,3.11-1.89,4.25-1.89,6.98-6.1,6.98-10.76,0-4.82-3.91-8.73-8.73-8.73"/>
</svg>