<?xml version="1.0" encoding="UTF-8"?>
<svg id="Layer_1" xmlns="http://www.w3.org/2000/svg" version="1.1" viewBox="0 0 109 104">
  <!-- Generator: Adobe Illustrator 29.0.1, SVG Export Plug-In . SVG Version: 2.1.0 Build 192)  -->
  <defs>
    <style>
      .st0 {
        fill: #024959;
      }
    </style>
  </defs>
  <path class="st0" d="M97.6,68.58c.27.48.02,1.13-.37,1.52l-.2.2c-4.47-6.76-19.7-23.78-24.68-28.76l-15.38-14.47c-2.43-2.43-5.82-4.07-9.09-5.66-1.21-.58-2.35-1.14-3.44-1.73l.87-.87c1.21.67,2.48,1.29,3.82,1.94,3.18,1.54,6.46,3.14,8.76,5.43l15.38,14.47c5.88,5.88,21.25,22.47,24.34,27.93M89.53,75.93c-22.37-19.6-34.43-29.77-40.38-34.02-1.11-.66-2.07-.83-2.85-.49-.15.06-.26.18-.33.33-.34.78-.17,1.73.52,2.89,4.22,5.91,14.38,17.97,33.99,40.34.47.53.48,1.39.03,1.84l-4.73,4.73c-6.51-4.2-23.76-19.65-28.75-24.64l-14.5-15.4c-2.28-2.28-3.87-5.57-5.42-8.74-.65-1.34-1.27-2.61-1.94-3.82l6.26-6.26c.19.5.5,1.03,1.09,1.62.95.95,1.56,1.32,2.15,1.68.56.34,1.09.66,1.98,1.55.81.81.89,1.38,1.01,2.1.12.75.25,1.6,1.1,2.7.22.28.62.33.9.11.02-.02.04-.04.06-.05.22-.23.25-.59.05-.85-.65-.84-.74-1.43-.85-2.11-.12-.8-.26-1.71-1.36-2.81-.99-1-1.62-1.38-2.22-1.74-.55-.33-1.07-.65-1.91-1.49-.67-.67-.85-1.18-.96-1.75l3.77-3.77c.54.12,1.03.32,1.66.94.84.84,1.16,1.36,1.49,1.91.36.6.74,1.23,1.74,2.22,1.11,1.1,2.01,1.24,2.81,1.36.68.1,1.27.19,2.11.85.26.2.62.17.85-.05.02-.02.04-.04.05-.06.22-.28.17-.68-.11-.9-1.1-.86-1.95-.99-2.7-1.1-.72-.11-1.29-.2-2.1-1.01-.89-.89-1.21-1.42-1.55-1.98-.36-.59-.73-1.2-1.68-2.15-.56-.56-1.07-.87-1.54-1.06l6.24-6.24c1.21.67,2.48,1.29,3.82,1.94,3.18,1.54,6.46,3.14,8.76,5.43l15.38,14.47c5,5,20.45,22.26,24.65,28.77l-4.73,4.73c-.45.45-1.31.44-1.84-.03M73.13,93.06c-5.46-3.09-22.05-18.46-27.91-24.33l-14.5-15.4c-2.28-2.28-3.88-5.57-5.42-8.74-.65-1.34-1.27-2.61-1.94-3.82l.87-.87c.59,1.08,1.15,2.23,1.73,3.44,1.59,3.27,3.23,6.66,5.65,9.08l14.5,15.41c4.97,4.97,21.98,20.19,28.75,24.67l-.2.2c-.39.39-1.04.65-1.52.37M20.3,37.48c-.25-.25-.25-.65,0-.9l20.82-20.82c.25-.25.65-.25.9,0l2.26,2.26-8.49,8.49c-.61-.1-1.21-.24-1.99-.84-.28-.22-.68-.16-.9.11-.22.28-.17.68.11.9.64.5,1.2.75,1.7.9l-2.59,2.59c-.16-.48-.41-1.01-.88-1.62-.22-.28-.62-.33-.9-.11-.28.22-.33.62-.11.9.57.73.72,1.31.83,1.89l-8.52,8.52-2.26-2.26ZM58.78,25.26c-2.43-2.43-5.82-4.07-9.09-5.66-1.45-.71-2.83-1.37-4.1-2.1l-2.65-2.65c-.75-.75-1.97-.75-2.72,0l-20.82,20.82c-.75.75-.75,1.97,0,2.72l2.65,2.65c.72,1.28,1.39,2.65,2.1,4.1,1.59,3.27,3.23,6.66,5.65,9.08l14.5,15.4c5.44,5.45,22.36,21.24,28.2,24.55.93.53,2.19.29,3.06-.58l5.86-5.86c.93-.93.95-2.54.03-3.59-19.58-22.33-29.72-34.37-33.88-40.19-.34-.56-.5-1.05-.48-1.41.36-.02.84.14,1.37.45,5.87,4.19,17.9,14.34,40.24,33.91,1.05.92,2.66.91,3.59-.03l5.86-5.86c.87-.87,1.11-2.13.58-3.06-3.31-5.84-19.1-22.76-24.56-28.22l-15.38-14.47Z"/>
</svg>